<svg id="svg" version="1.1" xmlns="http://www.w3.org/2000/svg" xmlns:xlink="http://www.w3.org/1999/xlink" width="400" height="400.335852225021" viewBox="0, 0, 400,400.335852225021"><g id="svgg"><path id="path0" d="M0.000 201.175 L 0.000 397.649 199.664 397.649 L 399.328 397.649 399.328 201.175 L 399.328 4.702 199.664 4.702 L 0.000 4.702 0.000 201.175 M398.321 201.008 L 398.321 396.306 199.832 396.306 L 1.343 396.306 1.343 201.008 L 1.343 5.709 199.832 5.709 L 398.321 5.709 398.321 201.008 M315.029 20.519 C 310.109 20.947,303.659 21.454,242.821 26.197 C 219.770 27.994,189.459 30.365,182.704 30.899 C 175.494 31.469,80.119 38.924,66.163 40.008 C 58.866 40.575,52.836 41.098,52.761 41.170 C 52.686 41.242,52.885 44.515,53.203 48.443 C 53.521 52.370,54.144 60.269,54.587 65.995 C 55.940 83.493,56.182 86.575,58.944 121.411 C 59.398 127.137,60.078 135.676,60.456 140.386 C 60.833 145.097,61.290 150.991,61.471 153.484 C 61.888 159.225,63.025 173.563,63.481 178.841 C 63.672 181.058,64.050 185.819,64.321 189.421 C 64.592 193.023,65.115 199.748,65.482 204.366 C 65.850 208.984,66.384 215.785,66.669 219.479 C 67.204 226.413,68.329 240.635,69.524 255.584 C 69.900 260.294,70.420 267.019,70.679 270.529 C 71.462 281.165,73.618 307.129,73.728 307.248 C 73.830 307.360,80.517 306.853,113.014 304.275 C 122.435 303.528,133.997 302.617,138.707 302.250 C 143.417 301.884,158.757 300.676,172.796 299.566 C 186.835 298.455,205.046 297.022,213.266 296.382 C 221.486 295.741,230.025 295.064,232.242 294.876 C 234.458 294.689,243.980 293.934,253.401 293.199 C 262.821 292.464,276.348 291.404,283.459 290.844 C 340.341 286.365,339.703 286.417,339.839 286.292 C 339.943 286.196,339.662 282.752,339.019 276.238 C 338.833 274.354,338.501 270.172,338.379 268.178 C 338.323 267.254,338.181 265.592,338.065 264.484 C 337.674 260.765,337.154 253.623,337.123 251.553 C 337.116 251.092,336.977 249.876,336.815 248.852 C 336.652 247.828,336.444 245.258,336.352 243.142 C 336.260 241.026,336.118 238.690,336.037 237.951 C 335.646 234.396,335.533 232.976,335.364 229.555 C 335.265 227.523,335.092 225.091,334.982 224.151 C 334.592 220.841,334.495 219.795,334.376 217.632 C 334.310 216.432,334.158 214.391,334.038 213.098 C 333.918 211.805,333.744 209.689,333.652 208.396 C 333.477 205.940,333.207 202.623,332.997 200.336 C 332.928 199.597,332.783 197.195,332.674 194.999 C 332.564 192.802,332.407 190.896,332.324 190.762 C 332.242 190.628,332.090 188.874,331.988 186.863 C 331.885 184.852,331.636 182.346,331.434 181.293 C 331.231 180.240,331.139 179.182,331.229 178.942 C 331.365 178.578,331.092 174.235,330.673 170.109 C 330.617 169.555,330.469 167.212,330.343 164.903 C 330.218 162.594,330.019 160.252,329.900 159.698 C 329.665 158.596,329.624 158.103,329.322 152.645 C 329.210 150.613,329.032 148.131,328.927 147.130 C 328.726 145.206,328.478 142.449,328.306 140.218 C 328.104 137.607,327.753 133.146,327.631 131.654 C 327.564 130.823,327.414 128.858,327.299 127.288 C 327.184 125.718,327.030 123.829,326.956 123.090 C 326.882 122.351,326.730 120.084,326.617 118.052 C 326.504 116.020,326.256 113.555,326.066 112.574 C 325.876 111.593,325.788 110.611,325.871 110.391 C 325.953 110.171,325.812 107.573,325.558 104.618 C 325.304 101.662,325.018 97.884,324.924 96.222 C 324.829 94.559,324.671 92.973,324.572 92.698 C 324.473 92.422,324.318 90.533,324.227 88.500 C 324.137 86.466,323.832 82.309,323.550 79.261 C 323.268 76.213,322.992 72.964,322.935 72.040 C 322.501 64.915,322.339 62.667,321.919 57.935 C 321.657 54.979,321.281 50.369,321.083 47.691 C 319.282 23.254,318.984 20.110,318.482 20.197 C 318.338 20.222,316.784 20.367,315.029 20.519 M254.576 45.161 C 270.333 46.440,285.093 48.408,286.542 49.423 C 287.606 50.169,288.297 52.016,288.007 53.340 C 287.751 54.506,285.643 57.073,278.837 64.510 C 274.700 69.030,259.771 71.761,253.127 69.212 C 252.607 69.013,251.743 68.850,251.208 68.850 C 250.300 68.850,247.665 68.023,245.340 67.007 C 244.786 66.765,243.350 66.453,242.149 66.314 C 240.949 66.175,239.589 66.016,239.127 65.962 C 231.559 65.066,225.599 65.026,219.815 65.832 C 201.390 68.402,186.273 71.566,170.949 76.062 C 151.217 81.850,129.356 96.697,113.600 115.008 C 108.005 121.511,103.493 132.186,100.602 145.760 C 96.953 162.898,98.034 180.445,103.789 197.473 C 114.041 227.808,144.993 251.206,180.017 255.099 C 195.394 256.809,212.045 256.477,223.510 254.232 C 236.252 251.738,243.843 249.603,253.736 245.732 C 259.633 243.425,259.922 243.241,263.600 239.472 C 274.602 228.198,278.325 212.505,273.643 197.145 C 271.430 189.887,269.454 184.045,268.360 181.528 C 268.199 181.159,267.504 179.496,266.815 177.834 C 264.125 171.341,258.321 160.624,255.994 157.851 C 255.296 157.019,254.226 155.697,253.615 154.911 C 251.931 152.748,246.080 146.984,243.375 144.825 C 242.054 143.770,240.898 142.807,240.805 142.685 C 240.105 141.761,231.965 136.842,227.557 134.679 C 215.723 128.872,206.290 126.694,188.825 125.735 C 179.624 125.231,169.082 127.999,161.325 132.956 L 158.922 134.492 157.798 137.859 C 153.525 150.669,160.858 175.087,172.534 186.925 C 176.460 190.905,183.938 196.474,185.357 196.474 C 185.499 196.474,186.735 197.018,188.104 197.685 C 199.817 203.385,212.569 205.848,217.697 203.401 C 221.607 201.535,224.155 198.114,226.735 191.268 C 230.026 182.537,239.132 174.265,243.587 175.959 C 246.634 177.117,245.703 185.581,242.047 189.961 C 241.601 190.495,240.988 191.417,240.683 192.011 C 240.379 192.604,239.338 194.130,238.369 195.401 C 237.400 196.673,235.938 198.606,235.120 199.696 C 232.288 203.469,223.443 211.935,218.921 215.200 C 208.715 222.568,192.827 226.233,181.192 223.903 C 168.164 221.295,160.357 217.607,151.721 209.982 C 149.736 208.229,148.108 206.701,148.105 206.588 C 148.102 206.474,147.460 205.684,146.678 204.833 C 138.817 196.271,133.546 184.510,133.148 174.643 C 133.084 173.073,132.950 170.882,132.850 169.773 C 132.576 166.741,133.774 158.333,134.904 155.359 C 135.191 154.605,135.777 152.975,136.207 151.737 C 136.637 150.499,137.450 148.610,138.015 147.539 C 138.579 146.468,139.042 145.403,139.042 145.172 C 139.042 144.941,139.179 144.752,139.346 144.752 C 139.512 144.752,139.819 144.265,140.027 143.669 C 140.394 142.614,144.171 136.021,144.985 135.013 C 145.209 134.736,146.289 133.300,147.386 131.822 C 150.870 127.126,157.358 120.420,160.149 118.630 C 160.640 118.315,161.323 117.802,161.668 117.490 C 168.180 111.591,185.539 104.552,195.130 103.923 C 196.516 103.832,198.756 103.611,200.108 103.432 C 230.684 99.388,270.811 120.110,287.068 148.339 C 287.762 149.543,288.598 150.979,288.926 151.530 C 298.213 167.135,300.223 187.025,294.470 206.381 C 292.360 213.478,281.553 231.512,275.568 237.922 C 274.721 238.830,273.917 239.770,273.781 240.012 C 273.424 240.651,264.645 249.497,262.563 251.317 C 261.587 252.169,260.109 253.420,259.278 254.097 C 258.447 254.774,257.691 255.434,257.599 255.565 C 257.324 255.953,251.507 260.113,249.874 261.089 C 249.043 261.586,247.305 262.668,246.012 263.493 C 239.103 267.904,229.994 271.570,216.961 275.188 C 213.037 276.277,202.929 278.017,199.328 278.224 C 170.138 279.900,140.681 275.447,126.964 267.285 C 126.311 266.896,124.794 266.052,123.594 265.408 C 122.393 264.764,120.353 263.455,119.060 262.498 C 117.767 261.542,116.029 260.361,115.197 259.873 C 114.366 259.385,112.679 258.069,111.449 256.949 C 110.218 255.829,109.047 254.912,108.846 254.912 C 108.645 254.912,108.480 254.778,108.480 254.614 C 108.480 254.450,106.704 252.521,104.534 250.328 C 99.623 245.364,93.476 237.800,91.016 233.692 C 90.554 232.921,89.685 231.546,89.085 230.637 C 88.484 229.728,87.993 228.903,87.993 228.805 C 87.993 228.707,87.249 227.325,86.340 225.733 C 82.549 219.093,78.774 208.026,78.078 201.511 C 77.338 194.580,77.334 185.745,78.068 180.269 C 78.173 179.484,78.322 177.708,78.399 176.322 C 78.592 172.829,79.251 167.289,79.617 166.079 C 79.785 165.525,80.007 164.467,80.111 163.728 C 80.461 161.234,80.557 160.713,81.288 157.347 C 82.185 153.219,84.049 147.282,85.295 144.584 C 85.807 143.476,86.646 141.549,87.160 140.302 C 87.674 139.055,88.223 138.035,88.380 138.035 C 88.537 138.035,88.665 137.857,88.665 137.639 C 88.665 136.845,98.214 122.488,101.165 118.844 C 101.668 118.224,103.075 116.370,104.292 114.724 C 105.510 113.079,107.091 111.114,107.806 110.358 C 108.521 109.602,109.910 107.982,110.892 106.757 C 111.875 105.532,114.643 102.427,117.045 99.858 C 119.446 97.289,121.799 94.739,122.275 94.193 C 123.398 92.901,130.990 85.926,133.197 84.158 C 134.138 83.404,135.968 81.881,137.264 80.772 C 140.808 77.743,146.603 73.203,148.679 71.832 C 149.692 71.163,150.923 70.286,151.415 69.883 C 152.256 69.194,152.927 68.738,157.378 65.827 C 177.748 52.505,195.107 46.650,220.487 44.543 C 224.355 44.222,248.373 44.657,254.576 45.161 M34.257 346.303 C 32.382 346.604,31.885 346.779,29.256 348.062 C 18.197 353.462,18.474 372.559,29.686 377.692 C 34.713 379.994,43.822 380.057,49.202 377.828 C 49.572 377.675,50.290 377.460,50.798 377.350 L 51.721 377.149 51.721 369.095 L 51.721 361.041 44.165 361.041 L 36.608 361.041 36.608 364.064 L 36.608 367.086 39.979 367.086 L 43.349 367.086 43.253 370.361 L 43.157 373.636 40.302 373.628 C 33.356 373.608,29.711 369.786,29.740 362.552 C 29.761 357.597,31.275 354.780,35.017 352.735 C 37.814 351.207,45.712 352.224,48.354 354.452 C 48.636 354.690,49.433 355.225,50.126 355.640 L 51.385 356.394 51.385 352.529 L 51.385 348.663 48.783 347.662 C 44.395 345.974,39.284 345.496,34.257 346.303 M101.427 347.053 C 94.847 349.390,91.507 353.914,90.828 361.412 C 89.542 375.604,101.992 383.623,116.457 377.918 L 118.556 377.091 118.556 373.264 C 118.556 371.159,118.473 369.437,118.373 369.437 C 118.272 369.437,117.068 370.194,115.698 371.119 C 107.549 376.618,99.965 373.138,99.489 363.682 C 98.930 352.590,107.427 348.825,117.170 355.847 C 117.793 356.296,118.435 356.582,118.597 356.482 C 119.069 356.190,118.970 348.615,118.494 348.615 C 118.275 348.615,117.482 348.319,116.731 347.957 C 112.786 346.059,105.448 345.625,101.427 347.053 M135.979 346.752 C 120.018 351.152,120.770 376.242,136.960 379.492 C 150.584 382.226,160.471 371.990,157.371 358.360 C 155.295 349.231,145.757 344.056,135.979 346.752 M60.789 362.888 L 60.789 379.177 72.376 379.177 L 83.963 379.177 83.963 375.987 L 83.963 372.796 76.406 372.796 L 68.850 372.796 68.850 368.766 L 68.850 364.736 75.903 364.736 L 82.955 364.736 82.955 361.720 L 82.955 358.704 75.987 358.613 L 69.018 358.522 69.018 355.668 L 69.018 352.813 76.658 352.722 L 84.299 352.632 84.299 349.616 L 84.299 346.599 72.544 346.599 L 60.789 346.599 60.789 362.888 M165.911 363.215 L 165.911 379.513 169.769 379.513 L 173.626 379.513 173.715 368.544 L 173.804 357.574 174.614 359.560 C 175.060 360.652,175.754 362.301,176.156 363.224 C 176.558 364.148,177.549 366.453,178.359 368.346 L 179.832 371.788 182.628 371.788 L 185.425 371.788 185.941 370.529 C 186.225 369.836,186.950 368.136,187.553 366.751 C 188.155 365.365,189.238 362.836,189.958 361.130 C 190.678 359.424,191.398 358.026,191.557 358.024 C 191.718 358.021,191.736 362.787,191.598 368.766 L 191.351 379.513 195.591 379.513 L 199.832 379.513 199.832 363.224 L 199.832 346.935 195.108 346.935 L 190.385 346.935 189.201 349.538 C 188.551 350.970,187.333 353.652,186.494 355.500 C 183.287 362.569,182.991 363.142,182.707 362.850 C 182.547 362.686,181.195 359.757,179.702 356.339 C 178.208 352.922,176.648 349.446,176.235 348.615 L 175.483 347.103 170.697 347.010 L 165.911 346.917 165.911 363.215 M217.013 349.538 C 216.582 350.785,215.875 352.712,215.443 353.820 C 215.010 354.929,213.120 359.992,211.243 365.071 C 209.366 370.151,207.391 375.422,206.854 376.784 C 206.317 378.145,205.877 379.317,205.877 379.386 C 205.877 379.456,207.762 379.513,210.066 379.513 L 214.254 379.513 215.219 376.406 L 216.185 373.300 222.522 373.300 L 228.860 373.300 229.838 376.406 L 230.816 379.513 235.011 379.513 C 238.848 379.513,239.190 379.463,239.031 378.925 C 238.822 378.222,236.175 370.931,232.234 360.202 C 231.555 358.354,230.415 355.225,229.700 353.248 C 228.986 351.270,228.177 349.117,227.904 348.462 L 227.406 347.271 222.602 347.271 L 217.798 347.271 217.013 349.538 M245.508 363.369 L 245.508 379.513 249.538 379.513 L 253.568 379.513 253.568 373.636 L 253.568 367.758 255.720 367.758 L 257.871 367.758 259.654 370.193 C 264.436 376.724,266.168 379.045,266.553 379.438 C 266.864 379.756,268.207 379.843,271.716 379.774 L 276.459 379.681 274.781 377.498 C 273.858 376.297,271.504 373.283,269.549 370.800 C 265.422 365.557,265.521 365.912,267.755 364.400 C 274.431 359.879,273.555 350.472,266.233 348.055 C 264.790 347.579,262.820 347.456,254.996 347.351 L 245.508 347.224 245.508 363.369 M144.629 352.856 C 150.989 355.875,150.882 370.336,144.477 373.228 C 138.579 375.892,133.634 371.879,133.099 363.997 C 132.519 355.453,138.309 349.857,144.629 352.856 M260.612 353.300 C 262.707 353.704,263.644 354.861,263.644 357.046 C 263.644 360.610,262.008 361.800,256.843 361.991 L 253.568 362.112 253.568 357.546 L 253.568 352.981 256.339 352.995 C 257.863 353.003,259.786 353.140,260.612 353.300 M222.965 356.423 C 223.144 357.024,224.055 359.668,224.989 362.301 L 226.688 367.086 222.509 367.086 L 218.331 367.086 220.019 362.301 C 220.947 359.668,221.855 357.024,222.036 356.423 C 222.217 355.823,222.427 355.332,222.502 355.332 C 222.577 355.332,222.785 355.823,222.965 356.423 M302.286 358.721 C 298.291 359.504,295.790 361.865,295.790 364.852 C 295.790 368.771,298.227 370.729,304.456 371.814 C 306.933 372.245,307.976 372.982,307.976 374.300 C 307.976 376.945,301.869 377.120,297.674 374.593 C 296.646 373.974,295.747 373.468,295.677 373.468 C 295.607 373.468,295.550 374.595,295.550 375.973 L 295.550 378.478 297.817 379.185 C 305.189 381.481,312.469 379.181,313.197 374.324 C 313.826 370.129,311.822 368.184,305.290 366.650 C 301.602 365.784,301.259 365.582,301.259 364.281 C 301.259 361.945,306.591 361.402,310.221 363.368 C 312.720 364.721,312.678 364.740,312.678 362.228 C 312.678 359.643,312.534 359.520,308.687 358.834 C 305.809 358.321,304.449 358.296,302.286 358.721 M328.309 363.644 C 326.849 367.432,322.418 379.449,322.418 379.622 C 322.418 379.747,323.310 379.849,324.400 379.849 L 326.381 379.849 326.985 378.170 L 327.589 376.490 330.867 376.490 L 334.145 376.490 334.742 378.170 L 335.338 379.849 337.442 379.849 C 338.600 379.849,339.546 379.736,339.545 379.597 C 339.543 379.458,338.183 375.729,336.522 371.310 C 334.861 366.891,333.501 363.226,333.501 363.166 C 333.501 362.670,328.507 363.130,328.309 363.644 M348.279 371.620 L 348.279 380.185 350.462 380.185 L 352.645 380.185 352.645 376.994 L 352.645 373.804 353.904 373.811 C 355.107 373.817,355.266 373.960,357.456 377.001 L 359.748 380.185 362.110 380.185 C 364.950 380.185,364.962 380.314,361.733 376.226 C 359.133 372.935,358.953 372.418,360.202 371.849 C 362.628 370.744,363.203 366.571,361.199 364.624 C 359.715 363.183,359.061 363.056,353.107 363.056 L 348.279 363.056 348.279 371.620 M372.796 371.620 L 372.796 380.185 378.841 380.185 L 384.887 380.185 384.887 378.505 L 384.887 376.826 381.024 376.826 L 377.162 376.826 377.162 369.941 L 377.162 363.056 374.979 363.056 L 372.796 363.056 372.796 371.620 M357.491 366.607 C 359.177 368.293,357.651 370.499,354.647 370.717 L 352.645 370.862 352.645 368.470 L 352.645 366.079 354.804 366.079 C 356.319 366.079,357.120 366.236,357.491 366.607 M332.251 370.697 L 333.088 373.468 330.944 373.468 C 328.479 373.468,328.534 373.593,329.652 370.569 C 330.120 369.300,330.579 368.048,330.670 367.786 C 330.946 366.995,331.365 367.766,332.251 370.697 M315.556 376.825 C 315.260 379.832,315.275 379.849,318.240 379.849 L 320.739 379.849 320.739 377.162 L 320.739 374.475 318.263 374.475 L 315.788 374.475 315.556 376.825 M341.226 377.649 L 341.226 379.849 343.257 379.849 L 345.288 379.849 345.188 377.750 L 345.088 375.651 343.157 375.550 L 341.226 375.449 341.226 377.649 M365.743 378.002 L 365.743 380.185 367.758 380.185 L 369.773 380.185 369.773 378.002 L 369.773 375.819 367.758 375.819 L 365.743 375.819 365.743 378.002 " stroke="none" fill="#0505f7" fill-rule="evenodd"></path><path id="path1" d="M0.000 2.183 L 0.000 4.366 199.832 4.366 L 399.664 4.366 399.664 201.008 L 399.664 397.649 199.832 397.649 L 0.000 397.649 0.000 398.992 L 0.000 400.336 200.000 400.336 L 400.000 400.336 400.000 200.168 L 400.000 0.000 200.000 0.000 L 0.000 0.000 0.000 2.183 M1.499 6.465 C 1.411 6.696,1.378 94.467,1.425 201.511 L 1.511 396.138 199.664 396.138 L 397.817 396.138 397.817 201.175 L 397.817 6.213 199.738 6.129 C 41.450 6.062,1.626 6.129,1.499 6.465 M319.619 25.385 C 319.834 28.325,320.098 31.788,320.205 33.081 C 320.425 35.731,321.519 49.650,322.263 59.278 C 322.534 62.788,322.834 66.490,322.929 67.506 C 323.025 68.522,323.175 70.109,323.263 71.033 C 323.351 71.956,323.577 74.903,323.766 77.582 C 323.955 80.260,324.176 83.132,324.257 83.963 C 324.338 84.794,324.484 86.759,324.582 88.329 C 324.836 92.430,325.738 103.706,326.127 107.641 C 326.310 109.488,326.521 112.133,326.597 113.518 C 326.754 116.392,328.412 137.596,328.619 139.379 C 328.694 140.025,328.931 142.897,329.146 145.760 C 329.361 148.623,329.822 154.366,330.170 158.522 C 330.519 162.678,330.808 166.381,330.812 166.751 C 330.822 167.579,331.378 175.100,331.829 180.521 C 332.150 184.380,333.567 202.403,334.693 216.961 C 334.986 220.747,335.512 227.170,335.862 231.234 C 336.211 235.298,336.558 239.681,336.633 240.974 C 336.939 246.274,338.612 267.543,338.759 268.009 C 338.846 268.285,338.984 270.023,339.067 271.871 C 339.149 273.719,339.360 276.667,339.537 278.421 C 339.714 280.176,339.890 282.292,339.928 283.123 C 339.967 283.955,340.113 284.870,340.253 285.157 C 340.528 285.722,340.121 286.624,339.559 286.692 C 339.367 286.715,339.173 286.755,339.127 286.780 C 339.081 286.806,337.531 286.904,335.684 286.998 C 333.837 287.092,326.885 287.622,320.235 288.175 C 313.585 288.728,306.935 289.259,305.458 289.354 C 303.980 289.450,300.050 289.747,296.725 290.016 C 287.807 290.735,277.908 291.521,275.231 291.722 C 273.938 291.819,271.444 292.046,269.689 292.226 C 267.935 292.406,266.073 292.545,265.552 292.533 C 265.031 292.522,262.764 292.667,260.514 292.855 C 258.264 293.043,255.365 293.281,254.072 293.384 C 252.779 293.488,248.094 293.872,243.661 294.238 C 239.228 294.605,234.240 294.992,232.578 295.098 C 230.915 295.205,226.381 295.568,222.502 295.905 C 218.623 296.242,213.711 296.606,211.587 296.714 C 209.463 296.822,207.397 296.981,206.997 297.069 C 206.598 297.156,205.011 297.310,203.471 297.410 C 201.931 297.510,196.969 297.886,192.443 298.246 C 187.918 298.606,183.157 298.983,181.864 299.084 C 180.571 299.184,177.699 299.412,175.483 299.589 C 173.266 299.767,167.523 300.216,162.720 300.589 C 157.918 300.961,153.081 301.340,151.973 301.431 C 150.865 301.522,147.011 301.821,143.409 302.095 C 139.807 302.370,135.877 302.680,134.677 302.785 C 133.476 302.890,131.662 303.039,130.647 303.117 C 127.419 303.365,120.206 303.935,116.037 304.273 C 113.820 304.452,110.798 304.682,109.320 304.783 C 107.842 304.884,105.953 305.038,105.122 305.126 C 104.291 305.213,102.477 305.366,101.092 305.465 C 98.182 305.674,86.610 306.579,84.131 306.791 C 81.106 307.051,75.759 307.417,74.591 307.445 C 73.292 307.476,73.405 307.830,73.039 302.603 C 72.916 300.848,72.532 296.238,72.185 292.359 C 71.838 288.480,71.475 283.946,71.377 282.284 C 71.279 280.621,71.108 278.732,70.997 278.086 C 70.886 277.439,70.755 275.928,70.707 274.727 C 70.582 271.595,69.946 263.269,69.192 254.912 C 68.834 250.940,68.482 246.558,68.409 245.172 C 68.286 242.805,68.017 239.219,67.704 235.768 C 67.628 234.937,67.458 232.519,67.326 230.395 C 67.193 228.270,67.017 226.415,66.935 226.272 C 66.852 226.129,66.730 224.542,66.663 222.746 C 66.596 220.949,66.385 217.968,66.193 216.121 C 65.857 212.878,65.349 206.583,64.974 201.008 C 64.753 197.707,63.855 186.784,63.636 184.719 C 63.548 183.887,63.398 181.620,63.303 179.681 C 63.208 177.741,62.988 175.021,62.814 173.636 C 62.640 172.250,62.415 169.605,62.314 167.758 C 62.069 163.257,61.161 151.471,60.994 150.630 C 60.921 150.260,60.753 147.918,60.621 145.424 C 60.490 142.930,60.319 140.785,60.241 140.656 C 60.163 140.527,60.035 139.318,59.955 137.969 C 59.594 131.872,59.351 128.628,59.092 126.448 C 58.938 125.155,58.716 122.445,58.599 120.427 C 58.482 118.408,58.259 115.385,58.103 113.709 C 57.948 112.034,57.735 109.228,57.630 107.473 C 57.526 105.718,57.285 102.544,57.096 100.420 C 56.590 94.745,56.071 88.177,55.902 85.306 C 55.820 83.921,55.605 81.352,55.425 79.597 C 55.112 76.558,54.662 70.828,54.277 64.987 C 53.868 58.768,53.322 52.190,53.176 51.721 C 53.090 51.444,52.958 49.857,52.883 48.195 C 52.808 46.532,52.655 44.228,52.543 43.073 C 52.431 41.919,52.465 40.962,52.618 40.948 C 52.771 40.934,53.183 40.869,53.532 40.803 C 53.882 40.737,55.469 40.593,57.059 40.482 C 58.649 40.371,61.763 40.135,63.980 39.958 C 68.294 39.613,75.156 39.080,79.261 38.770 C 80.647 38.666,83.216 38.433,84.971 38.252 C 86.725 38.071,88.539 37.933,89.001 37.945 C 89.725 37.964,94.464 37.615,100.252 37.117 C 101.175 37.037,105.105 36.739,108.984 36.453 C 112.863 36.167,116.868 35.849,117.884 35.745 C 118.900 35.641,120.714 35.487,121.914 35.403 C 123.115 35.318,128.027 34.945,132.830 34.573 C 137.632 34.201,142.544 33.826,143.745 33.740 C 144.945 33.654,146.608 33.510,147.439 33.419 C 148.270 33.328,150.235 33.169,151.805 33.065 C 153.375 32.960,161.234 32.349,169.270 31.705 C 177.305 31.062,184.937 30.464,186.230 30.377 C 189.665 30.143,201.176 29.206,202.351 29.064 C 202.905 28.997,205.021 28.848,207.053 28.733 C 209.085 28.618,212.334 28.381,214.274 28.207 C 216.213 28.034,219.009 27.809,220.487 27.707 C 221.965 27.606,223.929 27.453,224.853 27.366 C 225.777 27.279,227.741 27.125,229.219 27.024 C 230.697 26.923,235.382 26.548,239.631 26.190 C 243.879 25.832,248.715 25.455,250.378 25.351 C 252.040 25.247,257.179 24.861,261.797 24.493 C 266.415 24.125,271.251 23.745,272.544 23.648 C 273.837 23.551,278.522 23.175,282.955 22.812 C 287.389 22.449,292.149 22.075,293.535 21.982 C 297.908 21.688,309.089 20.824,310.663 20.659 C 311.495 20.572,313.535 20.404,315.197 20.286 C 316.860 20.168,318.286 20.010,318.367 19.936 C 318.979 19.374,319.272 20.650,319.619 25.385 M215.652 45.169 C 211.538 45.556,208.537 45.998,204.198 46.854 C 203.736 46.945,202.225 47.240,200.840 47.510 C 195.135 48.622,183.987 52.231,178.505 54.741 C 177.397 55.249,175.584 56.075,174.475 56.576 C 170.779 58.248,166.755 60.280,166.415 60.645 C 166.230 60.844,163.736 62.473,160.873 64.266 C 158.010 66.058,154.912 68.054,153.988 68.701 C 153.065 69.348,152.025 70.061,151.678 70.287 C 150.142 71.286,147.609 73.124,146.602 73.971 C 145.998 74.479,145.334 74.895,145.128 74.895 C 144.921 74.895,144.752 75.017,144.752 75.166 C 144.752 75.315,143.732 76.183,142.485 77.094 C 141.238 78.005,139.160 79.673,137.867 80.800 C 136.574 81.927,134.922 83.364,134.197 83.994 C 122.767 93.908,109.609 107.943,102.603 117.692 C 102.233 118.206,101.042 119.782,99.955 121.194 C 98.868 122.606,96.833 125.500,95.432 127.624 C 94.031 129.748,92.797 131.562,92.688 131.654 C 91.433 132.724,86.590 142.402,84.685 147.645 C 82.918 152.509,82.854 152.729,82.544 154.996 C 82.493 155.365,82.366 155.743,82.261 155.835 C 81.943 156.116,80.976 160.787,80.280 165.407 C 77.729 182.342,77.196 194.191,78.612 202.519 C 79.069 205.205,80.543 211.513,80.928 212.427 C 81.083 212.796,81.553 214.081,81.971 215.281 C 83.452 219.532,89.309 230.676,91.592 233.585 C 91.737 233.770,92.673 235.130,93.672 236.608 C 94.671 238.086,96.371 240.378,97.450 241.702 C 98.529 243.025,99.412 244.195,99.412 244.300 C 99.412 244.677,109.022 254.201,110.999 255.783 C 112.107 256.670,113.224 257.603,113.481 257.856 C 113.738 258.110,114.343 258.565,114.825 258.869 C 115.307 259.173,116.306 259.899,117.045 260.483 C 120.202 262.977,129.521 268.162,134.173 270.013 C 137.625 271.387,141.271 272.564,145.592 273.701 C 147.070 274.089,148.808 274.548,149.454 274.720 C 150.872 275.098,155.819 276.019,157.683 276.251 C 158.421 276.344,159.961 276.564,161.103 276.741 C 169.263 278.005,187.205 278.948,192.947 278.414 C 194.979 278.225,198.304 277.917,200.336 277.728 C 205.125 277.285,208.813 276.781,210.076 276.398 C 210.630 276.230,211.568 276.011,212.161 275.911 C 228.918 273.093,247.195 264.092,261.959 251.385 C 263.997 249.632,271.820 241.720,273.389 239.828 C 274.217 238.828,275.288 237.543,275.768 236.973 C 278.360 233.897,285.041 224.546,286.347 222.167 C 286.551 221.797,287.197 220.663,287.783 219.647 C 295.747 205.851,298.996 190.889,297.044 176.994 C 295.168 163.640,290.368 152.504,281.555 141.065 C 266.482 121.499,241.374 106.770,218.304 103.960 C 214.642 103.514,207.231 103.113,205.542 103.268 C 204.526 103.362,202.712 103.517,201.511 103.612 C 193.889 104.217,191.258 104.701,183.543 106.917 C 180.429 107.812,169.781 112.490,169.270 113.188 C 169.177 113.314,168.724 113.609,168.262 113.844 C 167.393 114.285,161.506 118.201,161.209 118.536 C 161.117 118.640,159.941 119.615,158.596 120.702 C 154.528 123.991,148.309 131.086,144.581 136.692 C 143.659 138.077,142.830 139.286,142.737 139.379 C 142.645 139.471,142.220 140.227,141.792 141.058 C 141.365 141.889,140.658 143.249,140.222 144.081 C 139.785 144.912,139.170 146.196,138.855 146.935 C 138.540 147.674,138.019 148.883,137.697 149.622 C 133.133 160.102,131.754 174.824,134.655 182.113 C 134.821 182.530,135.147 183.627,135.380 184.551 C 135.613 185.474,136.534 187.793,137.425 189.702 C 138.958 192.984,139.848 194.518,142.702 198.791 C 143.368 199.788,144.064 200.846,144.249 201.142 C 144.433 201.437,144.669 201.755,144.772 201.847 C 144.875 201.940,145.181 202.340,145.451 202.737 C 154.961 216.683,177.452 226.105,195.970 223.902 C 210.606 222.160,224.904 212.611,237.290 196.306 C 245.255 185.821,247.399 177.396,242.464 175.980 C 239.980 175.268,232.464 181.396,229.688 186.398 C 229.329 187.045,228.668 188.178,228.219 188.917 C 227.770 189.656,227.090 191.167,226.708 192.275 C 224.744 197.974,221.222 202.460,217.751 203.683 C 216.855 203.999,215.920 204.357,215.675 204.480 C 214.976 204.828,207.387 204.311,204.037 203.686 C 199.811 202.898,194.095 200.906,188.498 198.271 C 186.790 197.467,185.310 196.809,185.208 196.809 C 184.971 196.809,179.568 193.720,179.345 193.457 C 179.253 193.348,178.044 192.338,176.658 191.213 C 172.504 187.839,166.594 181.319,166.586 180.101 C 166.584 179.870,166.450 179.681,166.288 179.681 C 165.649 179.681,162.803 173.727,160.669 167.926 C 155.985 155.192,155.008 143.956,157.923 136.356 C 158.313 135.340,158.760 134.341,158.916 134.135 C 159.446 133.437,168.213 128.583,169.270 128.403 C 169.362 128.387,170.495 128.065,171.788 127.688 C 179.027 125.576,188.201 124.854,195.130 125.852 C 196.700 126.078,200.226 126.504,202.966 126.799 C 222.008 128.847,241.442 139.682,254.746 155.668 C 255.668 156.776,256.522 157.758,256.642 157.851 C 257.523 158.526,264.456 171.380,266.612 176.335 C 269.907 183.906,272.842 192.195,273.921 196.977 C 274.046 197.531,274.234 198.133,274.338 198.315 C 274.442 198.496,274.562 198.874,274.604 199.154 C 274.646 199.435,274.856 200.344,275.071 201.175 C 275.833 204.122,275.602 218.308,274.765 219.933 C 274.608 220.238,274.287 221.318,274.051 222.334 C 272.767 227.868,267.143 237.336,263.212 240.581 C 262.803 240.918,261.853 241.775,261.102 242.484 C 260.073 243.455,258.620 244.204,255.224 245.515 C 252.743 246.473,250.563 247.350,250.378 247.464 C 250.193 247.579,249.857 247.700,249.632 247.734 C 249.301 247.785,244.770 249.303,242.485 250.129 C 242.208 250.229,241.830 250.347,241.646 250.391 C 241.461 250.434,239.874 250.851,238.119 251.316 C 224.135 255.021,213.767 256.384,199.832 256.348 C 190.241 256.322,187.450 256.161,178.170 255.097 C 167.597 253.884,154.235 249.803,146.767 245.506 C 145.936 245.027,144.500 244.288,143.577 243.863 C 142.653 243.437,141.416 242.727,140.828 242.284 C 140.240 241.840,139.671 241.478,139.564 241.478 C 139.088 241.478,130.039 234.767,127.792 232.748 C 125.999 231.137,120.185 225.321,118.192 223.145 C 116.083 220.842,111.487 214.721,110.327 212.671 C 110.143 212.344,109.669 211.626,109.275 211.076 C 108.560 210.077,108.257 209.454,105.995 204.332 C 103.741 199.229,101.165 190.674,100.089 184.719 C 99.872 183.518,99.547 181.780,99.367 180.856 C 99.187 179.933,98.949 177.968,98.838 176.490 C 98.727 175.013,98.547 173.469,98.437 173.060 C 98.113 171.855,98.625 155.150,99.069 152.442 C 100.179 145.671,101.023 141.675,102.077 138.203 C 102.413 137.095,102.886 135.508,103.128 134.677 C 103.369 133.846,103.928 132.334,104.370 131.318 C 104.812 130.302,105.406 128.794,105.691 127.967 C 107.507 122.687,114.114 112.425,116.959 110.465 C 117.118 110.356,119.242 108.302,121.680 105.902 C 127.350 100.318,133.923 94.962,140.218 90.796 C 145.784 87.112,147.039 86.314,147.265 86.314 C 147.396 86.314,147.931 86.009,148.454 85.637 C 149.616 84.810,158.449 80.299,160.537 79.467 C 161.369 79.136,162.804 78.508,163.728 78.072 C 166.460 76.783,182.662 72.350,191.268 70.536 C 192.376 70.302,193.812 69.971,194.458 69.798 C 195.105 69.626,196.238 69.413,196.977 69.324 C 197.716 69.235,198.547 69.078,198.825 68.975 C 199.393 68.762,203.150 68.088,207.893 67.348 C 209.647 67.074,212.292 66.615,213.770 66.329 C 218.908 65.335,232.695 64.715,236.475 65.309 C 236.918 65.378,239.169 65.687,241.478 65.995 C 243.787 66.304,246.507 66.859,247.523 67.230 C 248.539 67.601,249.597 67.960,249.874 68.029 C 256.224 69.589,259.086 69.883,264.316 69.511 C 271.759 68.982,275.621 67.435,279.213 63.541 C 287.806 54.226,288.546 53.011,287.029 50.719 C 285.917 49.039,285.239 48.878,272.208 47.208 C 265.041 46.289,265.851 46.372,255.919 45.545 C 252.872 45.291,250.151 45.058,249.874 45.028 C 246.707 44.682,219.637 44.793,215.652 45.169 M44.165 346.082 C 46.051 346.217,46.275 346.279,49.484 347.542 L 51.780 348.447 51.835 352.389 C 51.897 356.871,51.736 357.146,49.752 355.941 C 49.080 355.533,48.455 355.104,48.363 354.988 C 48.117 354.680,45.714 353.428,44.165 352.801 C 34.636 348.947,26.496 358.851,31.278 368.482 C 32.861 371.671,38.416 374.298,42.043 373.573 L 42.989 373.384 42.989 370.380 L 42.989 367.376 39.798 367.483 C 38.042 367.542,36.600 367.477,36.593 367.338 C 36.585 367.200,36.572 365.712,36.564 364.033 L 36.549 360.979 44.144 360.994 L 51.738 361.009 51.753 369.118 C 51.761 373.578,51.703 377.292,51.625 377.371 C 51.331 377.664,46.643 378.845,43.813 379.338 C 30.291 381.697,20.813 375.081,20.825 363.292 C 20.838 351.469,27.967 345.013,40.134 345.808 C 41.427 345.893,43.241 346.016,44.165 346.082 M111.677 346.264 C 113.032 346.264,117.258 347.544,117.941 348.162 C 118.318 348.503,118.694 348.745,118.777 348.698 C 118.859 348.652,118.937 350.460,118.950 352.715 C 118.965 355.433,118.848 356.858,118.601 356.940 C 118.224 357.065,116.242 355.824,115.790 355.180 C 115.654 354.986,115.541 354.968,115.538 355.138 C 115.535 355.309,115.193 355.138,114.777 354.758 C 111.827 352.060,106.251 351.943,102.887 354.509 C 100.767 356.125,98.551 363.087,99.615 364.787 C 99.771 365.036,99.951 365.617,100.014 366.079 C 100.903 372.593,108.482 375.414,114.479 371.463 C 119.284 368.297,119.091 368.212,118.956 373.442 L 118.853 377.440 117.445 378.006 C 116.671 378.317,115.810 378.623,115.533 378.686 C 115.256 378.748,113.971 379.073,112.678 379.408 C 103.616 381.755,93.996 377.569,91.689 370.277 C 91.455 369.538,91.153 368.783,91.016 368.598 C 90.589 368.019,90.602 359.137,91.032 357.770 C 92.040 354.566,93.770 351.497,95.382 350.056 C 95.844 349.643,96.448 349.088,96.725 348.824 C 97.416 348.164,100.853 346.675,102.321 346.399 C 104.408 346.008,110.313 345.724,110.647 346.000 C 110.822 346.145,111.286 346.264,111.677 346.264 M147.849 346.877 C 152.231 347.995,156.593 352.885,157.664 357.881 C 159.624 367.021,155.431 377.133,149.034 378.689 C 148.526 378.813,148.111 379.024,148.111 379.158 C 148.111 379.292,147.922 379.425,147.691 379.453 C 147.460 379.482,146.440 379.647,145.424 379.821 C 142.975 380.238,138.508 380.264,137.219 379.867 C 136.652 379.693,135.341 379.308,134.306 379.012 C 133.270 378.716,132.137 378.258,131.787 377.994 C 131.437 377.731,130.470 377.014,129.639 376.401 C 124.056 372.286,122.420 359.428,126.676 353.108 C 129.817 348.445,133.867 346.200,139.547 345.972 C 141.024 345.913,142.272 345.827,142.320 345.782 C 142.416 345.689,145.893 346.378,147.849 346.877 M84.359 349.657 C 84.495 353.519,85.303 353.149,76.742 353.149 L 69.353 353.149 69.353 355.668 L 69.353 358.186 76.334 358.277 L 83.316 358.368 83.219 361.573 L 83.123 364.777 76.238 364.840 L 69.353 364.903 69.353 368.766 L 69.353 372.628 76.742 372.692 L 84.131 372.756 84.299 375.967 C 84.391 377.734,84.354 379.216,84.216 379.262 C 84.079 379.308,78.676 379.304,72.210 379.253 L 60.453 379.160 60.453 362.880 L 60.453 346.599 72.352 346.599 L 84.251 346.599 84.359 349.657 M176.389 347.876 C 176.765 348.793,179.113 354.093,180.510 357.179 C 180.929 358.102,181.622 359.675,182.051 360.673 L 182.831 362.489 184.106 359.834 C 184.807 358.374,185.596 356.650,185.859 356.003 C 186.122 355.357,187.009 353.392,187.831 351.637 C 188.653 349.882,189.433 348.107,189.564 347.691 C 189.695 347.275,189.943 346.931,190.115 346.925 C 190.287 346.920,192.582 346.911,195.214 346.906 L 200.000 346.898 199.896 363.228 L 199.793 379.558 195.586 379.558 L 191.380 379.558 191.421 369.432 C 191.450 362.497,191.353 359.374,191.113 359.522 C 190.921 359.640,190.764 359.875,190.764 360.043 C 190.764 360.212,190.408 361.147,189.972 362.123 C 189.221 363.805,187.393 368.126,186.275 370.865 L 185.761 372.124 182.762 372.124 C 179.497 372.124,179.482 372.116,178.580 369.941 C 176.567 365.087,173.884 358.834,173.759 358.705 C 173.676 358.621,173.627 363.279,173.650 369.056 L 173.690 379.561 169.717 379.561 L 165.743 379.561 165.656 363.500 C 165.608 354.667,165.626 347.288,165.696 347.103 C 165.776 346.894,167.738 346.805,170.920 346.868 L 176.016 346.969 176.389 347.876 M255.919 347.050 C 263.881 347.175,265.028 347.264,266.796 347.893 C 274.533 350.645,274.553 361.061,266.830 365.590 C 266.157 365.985,265.924 365.645,273.023 374.643 C 275.063 377.229,276.735 379.450,276.737 379.578 C 276.743 379.830,268.444 380.096,266.910 379.894 C 266.212 379.801,265.667 379.297,264.733 377.878 C 263.420 375.884,260.737 372.234,260.085 371.555 C 259.873 371.335,259.264 370.461,258.733 369.613 C 257.709 367.980,257.045 367.642,255.210 367.817 L 254.072 367.926 253.981 373.868 L 253.889 379.811 249.669 379.914 C 247.348 379.970,245.387 379.954,245.311 379.877 C 245.106 379.670,245.142 347.077,245.348 346.871 C 245.445 346.775,245.860 346.744,246.272 346.803 C 246.683 346.862,251.024 346.973,255.919 347.050 M228.740 349.622 C 229.280 351.008,229.966 352.897,230.266 353.820 C 230.566 354.744,231.014 355.953,231.263 356.507 C 231.511 357.061,232.377 359.404,233.186 361.713 C 235.420 368.083,239.135 378.274,239.430 378.841 C 239.979 379.895,239.476 380.017,234.995 379.915 L 230.526 379.814 229.431 376.473 L 228.336 373.132 222.526 373.132 L 216.717 373.132 215.663 376.077 C 215.084 377.697,214.610 379.200,214.610 379.417 C 214.610 379.958,205.853 380.180,205.648 379.645 C 205.570 379.440,205.884 378.306,206.346 377.126 C 207.907 373.134,213.951 356.840,215.427 352.645 C 215.849 351.444,216.538 349.665,216.958 348.690 L 217.722 346.918 222.740 347.011 L 227.758 347.103 228.740 349.622 M138.486 352.895 C 132.186 355.555,131.419 368.511,137.328 372.467 C 142.945 376.228,148.867 371.534,149.089 363.145 C 149.288 355.632,144.035 350.553,138.486 352.895 M254.050 353.758 C 253.957 354.001,253.923 355.852,253.976 357.872 L 254.072 361.545 256.759 361.516 C 260.518 361.475,260.946 361.366,262.182 360.130 C 264.239 358.072,263.879 355.041,261.438 353.877 C 259.936 353.161,254.314 353.070,254.050 353.758 M221.730 358.249 C 221.334 359.508,220.553 361.822,219.995 363.392 C 218.590 367.345,218.415 367.086,222.502 367.086 C 226.700 367.086,226.525 367.689,224.238 361.104 L 222.451 355.960 221.730 358.249 M311.643 359.088 C 312.756 359.542,312.981 360.716,312.708 364.658 C 312.676 365.118,310.331 364.095,309.260 363.155 C 308.421 362.418,303.391 362.231,302.372 362.899 C 300.479 364.139,301.505 365.521,304.838 366.222 C 313.066 367.953,316.143 372.363,312.411 377.075 C 311.829 377.810,311.462 378.532,311.596 378.680 C 311.729 378.828,311.655 378.843,311.430 378.715 C 311.206 378.586,310.375 378.820,309.583 379.236 C 307.343 380.414,300.799 380.550,297.556 379.487 L 295.214 378.719 295.214 376.093 C 295.214 373.145,295.472 372.911,297.414 374.095 C 300.697 376.097,305.278 376.745,306.798 375.422 C 308.632 373.828,307.681 372.905,303.107 371.842 C 297.210 370.470,295.547 368.953,295.552 364.946 C 295.555 362.726,296.975 360.034,298.143 360.034 C 298.380 360.034,298.573 359.914,298.573 359.767 C 298.573 359.502,301.508 358.456,302.750 358.278 C 304.159 358.077,310.603 358.663,311.643 359.088 M335.702 368.010 C 336.775 370.919,338.215 374.763,338.902 376.552 C 340.364 380.360,340.438 380.185,337.361 380.185 L 334.951 380.185 334.553 378.856 C 333.924 376.756,333.471 376.490,330.524 376.490 L 327.931 376.490 327.303 378.338 L 326.675 380.185 324.379 380.185 C 322.716 380.185,322.082 380.064,322.082 379.747 C 322.082 379.182,326.424 367.350,327.745 364.316 L 328.440 362.720 331.095 362.720 L 333.750 362.720 335.702 368.010 M361.307 364.174 C 363.289 366.157,363.194 369.559,361.103 371.510 C 359.831 372.696,359.710 372.930,360.097 373.456 C 361.276 375.057,363.435 377.789,364.354 378.841 L 365.380 380.017 365.394 377.778 C 365.409 375.248,365.412 375.246,367.968 375.480 L 369.839 375.651 369.868 377.938 L 369.896 380.225 364.591 380.222 C 361.672 380.221,359.253 380.174,359.214 380.118 C 354.629 373.577,352.952 372.322,352.962 375.441 C 352.965 376.110,352.909 377.480,352.838 378.483 L 352.710 380.308 350.410 380.278 C 348.967 380.258,348.123 380.110,348.144 379.880 C 348.163 379.678,348.201 375.716,348.228 371.074 L 348.279 362.636 354.170 362.782 L 360.062 362.928 361.307 364.174 M377.162 369.242 C 377.162 377.571,376.738 376.826,381.480 376.826 L 385.390 376.825 385.390 378.421 L 385.390 380.017 379.177 380.185 C 375.760 380.277,372.813 380.313,372.628 380.265 C 372.412 380.209,372.326 377.066,372.387 371.449 L 372.482 362.720 374.822 362.720 L 377.162 362.720 377.162 369.242 M353.205 366.303 C 353.081 366.426,352.981 367.501,352.981 368.692 L 352.981 370.857 354.541 370.623 C 357.863 370.125,359.064 367.818,356.651 366.570 C 355.675 366.065,353.603 365.905,353.205 366.303 M330.055 370.510 C 329.003 373.718,328.940 373.534,331.051 373.403 L 332.705 373.300 331.831 370.529 L 330.957 367.758 330.055 370.510 M320.822 377.021 L 320.805 379.913 318.001 379.913 C 316.173 379.913,315.209 379.785,315.231 379.545 C 315.249 379.343,315.287 378.050,315.315 376.672 L 315.365 374.168 317.968 374.070 C 321.171 373.949,320.843 373.609,320.822 377.021 M345.350 377.715 L 345.321 380.017 343.105 380.116 L 340.890 380.215 340.890 377.765 L 340.890 375.315 343.135 375.364 L 345.380 375.414 345.350 377.715 " stroke="none" fill="#fbfbfb" fill-rule="evenodd"></path><path id="path2" d="M3.275 4.603 C 3.690 4.683,4.370 4.683,4.786 4.603 C 5.202 4.523,4.861 4.458,4.030 4.458 C 3.199 4.458,2.859 4.523,3.275 4.603 M391.856 4.609 C 392.456 4.684,393.438 4.684,394.039 4.609 C 394.639 4.535,394.148 4.474,392.947 4.474 C 391.746 4.474,391.255 4.535,391.856 4.609 M396.226 4.604 C 396.643 4.684,397.248 4.681,397.569 4.597 C 397.890 4.513,397.548 4.447,396.809 4.451 C 396.071 4.455,395.808 4.523,396.226 4.604 M103.359 5.961 C 157.343 6.008,245.680 6.008,299.664 5.961 C 353.648 5.915,309.479 5.876,201.511 5.876 C 93.543 5.876,49.374 5.915,103.359 5.961 M277.162 23.405 C 277.485 23.490,278.014 23.490,278.338 23.405 C 278.661 23.321,278.396 23.252,277.750 23.252 C 277.103 23.252,276.839 23.321,277.162 23.405 M105.713 36.845 C 106.131 36.926,106.736 36.923,107.057 36.839 C 107.378 36.755,107.036 36.689,106.297 36.693 C 105.558 36.696,105.296 36.765,105.713 36.845 M257.347 69.753 C 257.670 69.837,258.199 69.837,258.522 69.753 C 258.846 69.668,258.581 69.599,257.935 69.599 C 257.288 69.599,257.024 69.668,257.347 69.753 M129.736 87.330 C 128.958 88.064,128.436 88.665,128.576 88.665 C 128.716 88.665,129.421 88.060,130.143 87.322 C 131.830 85.593,131.570 85.599,129.736 87.330 M124.601 92.191 C 123.785 93.023,123.193 93.703,123.286 93.703 C 123.378 93.703,124.121 93.023,124.937 92.191 C 125.753 91.360,126.345 90.680,126.252 90.680 C 126.160 90.680,125.417 91.360,124.601 92.191 M115.851 101.343 L 114.694 102.603 115.953 101.445 C 117.125 100.368,117.367 100.084,117.110 100.084 C 117.054 100.084,116.488 100.651,115.851 101.343 M121.560 106.045 L 120.403 107.305 121.662 106.147 C 122.355 105.511,122.922 104.944,122.922 104.888 C 122.922 104.631,122.638 104.873,121.560 106.045 M168.215 113.174 L 167.422 113.838 168.343 113.426 C 168.850 113.200,169.265 112.901,169.267 112.762 C 169.271 112.377,169.077 112.453,168.215 113.174 M58.194 114.190 C 58.194 115.021,58.259 115.361,58.339 114.945 C 58.420 114.530,58.420 113.850,58.339 113.434 C 58.259 113.018,58.194 113.359,58.194 114.190 M187.490 125.504 C 187.813 125.589,188.342 125.589,188.665 125.504 C 188.988 125.420,188.724 125.351,188.077 125.351 C 187.431 125.351,187.166 125.420,187.490 125.504 M248.531 149.286 C 249.157 149.933,249.746 150.462,249.838 150.462 C 249.930 150.462,249.493 149.933,248.866 149.286 C 248.240 148.640,247.652 148.111,247.559 148.111 C 247.467 148.111,247.904 148.640,248.531 149.286 M98.496 159.866 C 98.496 160.697,98.562 161.037,98.642 160.621 C 98.722 160.206,98.722 159.526,98.642 159.110 C 98.562 158.694,98.496 159.034,98.496 159.866 M133.075 167.590 C 133.075 168.237,133.145 168.501,133.229 168.178 C 133.313 167.855,133.313 167.326,133.229 167.003 C 133.145 166.679,133.075 166.944,133.075 167.590 M79.476 167.661 C 79.363 168.084,79.286 168.883,79.305 169.437 C 79.329 170.133,79.427 169.928,79.619 168.776 C 79.913 167.022,79.827 166.352,79.476 167.661 M331.235 175.819 C 331.239 176.558,331.307 176.820,331.388 176.402 C 331.468 175.985,331.465 175.380,331.381 175.059 C 331.297 174.738,331.231 175.080,331.235 175.819 M78.014 182.872 C 78.016 183.795,78.082 184.133,78.159 183.623 C 78.236 183.112,78.234 182.356,78.154 181.943 C 78.074 181.530,78.011 181.948,78.014 182.872 M331.913 184.047 C 331.913 184.878,331.979 185.218,332.059 184.803 C 332.139 184.387,332.139 183.707,332.059 183.291 C 331.979 182.876,331.913 183.216,331.913 184.047 M142.035 198.768 C 142.216 199.107,142.629 199.598,142.951 199.860 C 143.314 200.154,143.233 199.920,142.738 199.244 C 141.856 198.039,141.525 197.815,142.035 198.768 M333.243 201.175 C 333.243 201.822,333.312 202.086,333.397 201.763 C 333.481 201.440,333.481 200.911,333.397 200.588 C 333.312 200.264,333.243 200.529,333.243 201.175 M209.992 204.430 C 210.315 204.514,210.844 204.514,211.167 204.430 C 211.490 204.345,211.226 204.276,210.579 204.276 C 209.933 204.276,209.668 204.345,209.992 204.430 M335.930 235.432 C 335.930 236.079,335.999 236.343,336.084 236.020 C 336.168 235.697,336.168 235.168,336.084 234.845 C 335.999 234.521,335.930 234.786,335.930 235.432 M189.005 256.157 C 189.423 256.237,190.027 256.234,190.348 256.150 C 190.669 256.066,190.327 256.000,189.589 256.004 C 188.850 256.008,188.587 256.077,189.005 256.157 M337.761 260.202 C 337.681 260.340,337.737 260.756,337.886 261.125 C 338.122 261.712,338.159 261.680,338.180 260.873 C 338.203 259.962,338.046 259.710,337.761 260.202 M145.508 301.827 C 145.831 301.911,146.360 301.911,146.683 301.827 C 147.007 301.742,146.742 301.673,146.096 301.673 C 145.449 301.673,145.185 301.742,145.508 301.827 M221.746 347.180 C 222.439 347.252,223.573 347.252,224.265 347.180 C 224.958 347.108,224.391 347.048,223.006 347.048 C 221.620 347.048,221.054 347.108,221.746 347.180 M250.462 347.186 C 252.355 347.246,255.453 347.246,257.347 347.186 C 259.240 347.126,257.691 347.077,253.904 347.077 C 250.118 347.077,248.568 347.126,250.462 347.186 M51.486 350.294 C 51.486 351.310,51.549 351.725,51.626 351.217 C 51.703 350.709,51.703 349.878,51.626 349.370 C 51.549 348.862,51.486 349.278,51.486 350.294 M165.729 362.552 C 165.728 370.126,165.773 373.272,165.827 369.544 C 165.881 365.816,165.881 359.619,165.827 355.774 C 165.773 351.929,165.729 354.979,165.729 362.552 M153.149 350.462 C 153.775 351.108,154.364 351.637,154.456 351.637 C 154.548 351.637,154.111 351.108,153.484 350.462 C 152.858 349.815,152.270 349.286,152.177 349.286 C 152.085 349.286,152.522 349.815,153.149 350.462 M295.322 375.483 C 295.322 376.683,295.383 377.175,295.457 376.574 C 295.532 375.974,295.532 374.992,295.457 374.391 C 295.383 373.791,295.322 374.282,295.322 375.483 M153.131 375.735 L 151.973 376.994 153.233 375.837 C 154.405 374.759,154.646 374.475,154.390 374.475 C 154.334 374.475,153.767 375.042,153.131 375.735 M214.274 379.121 C 214.274 379.337,213.934 379.531,213.518 379.552 C 212.896 379.584,212.873 379.619,213.386 379.751 C 214.056 379.924,214.882 379.338,214.503 378.959 C 214.377 378.833,214.274 378.906,214.274 379.121 M36.524 379.750 C 36.940 379.830,37.620 379.830,38.035 379.750 C 38.451 379.670,38.111 379.604,37.280 379.604 C 36.448 379.604,36.108 379.670,36.524 379.750 " stroke="none" fill="#8888e9" fill-rule="evenodd"></path><path id="path3" d="M318.601 20.042 C 318.810 20.194,319.065 20.621,319.167 20.991 C 319.312 21.520,319.338 21.490,319.290 20.849 C 319.255 20.402,319.001 19.975,318.724 19.900 C 318.391 19.810,318.349 19.858,318.601 20.042 M286.846 50.378 C 287.838 51.908,287.825 51.895,287.825 51.460 C 287.825 51.255,287.434 50.663,286.955 50.145 L 286.085 49.202 286.846 50.378 M283.942 58.186 L 282.955 59.278 284.047 58.291 C 284.647 57.749,285.139 57.258,285.139 57.200 C 285.139 56.941,284.861 57.169,283.942 58.186 M164.972 61.269 C 163.326 62.433,163.211 62.691,164.736 61.801 C 166.312 60.881,166.856 60.446,166.398 60.470 C 166.223 60.479,165.581 60.839,164.972 61.269 M153.398 68.821 C 152.018 69.706,151.826 70.017,153.043 69.399 C 153.632 69.099,154.208 68.702,154.323 68.516 C 154.592 68.080,154.511 68.107,153.398 68.821 M136.338 81.864 L 135.181 83.123 136.440 81.966 C 137.133 81.329,137.699 80.763,137.699 80.707 C 137.699 80.450,137.415 80.692,136.338 81.864 M133.480 84.382 L 132.494 85.472 133.501 84.639 C 134.055 84.180,134.652 83.690,134.828 83.548 C 135.026 83.389,135.018 83.291,134.807 83.291 C 134.620 83.291,134.023 83.782,133.480 84.382 M130.647 86.818 C 129.831 87.649,129.239 88.329,129.331 88.329 C 129.424 88.329,130.167 87.649,130.982 86.818 C 131.798 85.987,132.390 85.306,132.298 85.306 C 132.205 85.306,131.462 85.987,130.647 86.818 M124.983 92.054 C 123.437 93.534,122.236 94.808,122.313 94.885 C 122.390 94.963,123.727 93.746,125.283 92.181 C 128.858 88.588,128.680 88.513,124.983 92.054 M118.556 98.573 C 117.740 99.404,117.148 100.084,117.240 100.084 C 117.333 100.084,118.076 99.404,118.892 98.573 C 119.707 97.741,120.299 97.061,120.207 97.061 C 120.115 97.061,119.372 97.741,118.556 98.573 M113.836 103.694 L 112.678 104.954 113.938 103.796 C 114.631 103.160,115.197 102.593,115.197 102.537 C 115.197 102.281,114.913 102.522,113.836 103.694 M118.892 108.648 C 118.076 109.479,117.484 110.160,117.576 110.160 C 117.669 110.160,118.412 109.479,119.228 108.648 C 120.043 107.817,120.635 107.137,120.543 107.137 C 120.451 107.137,119.707 107.817,118.892 108.648 M176.658 109.320 C 176.196 109.584,175.970 109.800,176.154 109.800 C 176.339 109.800,176.868 109.584,177.330 109.320 C 177.792 109.056,178.018 108.840,177.834 108.840 C 177.649 108.840,177.120 109.056,176.658 109.320 M326.118 110.355 C 326.120 110.709,326.276 111.226,326.464 111.503 C 326.713 111.871,326.744 111.735,326.579 110.999 C 326.303 109.764,326.111 109.496,326.118 110.355 M106.599 112.259 C 105.128 113.955,104.691 114.526,104.861 114.526 C 104.960 114.526,105.598 113.846,106.279 113.014 C 107.541 111.475,107.791 110.884,106.599 112.259 M167.590 113.882 L 166.751 114.566 167.926 113.999 C 169.364 113.306,169.516 113.180,168.906 113.190 C 168.644 113.194,168.052 113.505,167.590 113.882 M164.273 116.032 C 163.096 116.838,161.962 117.681,161.755 117.905 C 161.547 118.129,162.548 117.531,163.980 116.576 C 165.411 115.622,166.583 114.770,166.583 114.683 C 166.583 114.449,166.586 114.447,164.273 116.032 M159.296 119.667 C 158.520 120.256,157.793 120.965,157.679 121.242 C 157.565 121.519,157.897 121.356,158.417 120.879 C 158.937 120.403,159.798 119.685,160.331 119.285 C 160.864 118.884,161.166 118.565,161.002 118.575 C 160.839 118.586,160.071 119.077,159.296 119.667 M154.818 123.846 L 152.645 126.113 154.912 123.939 C 156.159 122.744,157.179 121.724,157.179 121.672 C 157.179 121.425,156.837 121.740,154.818 123.846 M150.417 128.573 C 148.210 131.196,145.576 134.706,146.999 133.126 C 148.986 130.921,152.527 126.555,152.418 126.445 C 152.355 126.382,151.454 127.339,150.417 128.573 M273.887 132.326 C 274.797 133.249,275.617 134.005,275.709 134.005 C 275.802 134.005,275.133 133.249,274.223 132.326 C 273.314 131.402,272.494 130.647,272.401 130.647 C 272.309 130.647,272.978 131.402,273.887 132.326 M225.357 133.148 C 225.357 133.241,225.810 133.551,226.364 133.837 C 226.919 134.124,227.372 134.283,227.372 134.190 C 227.372 134.098,226.919 133.788,226.364 133.501 C 225.810 133.215,225.357 133.056,225.357 133.148 M235.914 139.008 C 236.039 139.210,236.454 139.542,236.835 139.746 C 237.332 140.012,237.464 140.013,237.301 139.750 C 237.176 139.548,236.762 139.215,236.381 139.011 C 235.884 138.745,235.752 138.744,235.914 139.008 M86.704 141.912 C 86.142 143.147,86.249 143.410,86.858 142.288 C 87.142 141.763,87.311 141.272,87.234 141.195 C 87.158 141.118,86.919 141.441,86.704 141.912 M329.213 148.447 C 329.213 149.093,329.282 149.358,329.367 149.034 C 329.451 148.711,329.451 148.182,329.367 147.859 C 329.282 147.536,329.213 147.800,329.213 148.447 M250.882 151.637 C 251.508 152.284,252.097 152.813,252.189 152.813 C 252.281 152.813,251.844 152.284,251.217 151.637 C 250.591 150.991,250.003 150.462,249.910 150.462 C 249.818 150.462,250.255 150.991,250.882 151.637 M289.337 153.149 C 289.623 153.703,289.933 154.156,290.026 154.156 C 290.118 154.156,289.959 153.703,289.673 153.149 C 289.386 152.594,289.076 152.141,288.984 152.141 C 288.891 152.141,289.050 152.594,289.337 153.149 M291.856 158.186 C 292.233 158.925,292.617 159.530,292.709 159.530 C 292.801 159.530,292.568 158.925,292.191 158.186 C 291.814 157.448,291.431 156.843,291.338 156.843 C 291.246 156.843,291.479 157.448,291.856 158.186 M62.546 171.620 C 62.546 172.267,62.616 172.531,62.700 172.208 C 62.785 171.885,62.785 171.356,62.700 171.033 C 62.616 170.709,62.546 170.974,62.546 171.620 M239.556 192.863 C 238.900 193.712,238.676 194.233,239.073 193.988 C 239.471 193.742,240.266 192.443,240.019 192.443 C 239.943 192.443,239.735 192.632,239.556 192.863 M140.936 196.630 C 141.402 197.464,141.914 198.227,142.073 198.326 C 142.233 198.424,141.982 197.822,141.516 196.988 C 141.050 196.155,140.538 195.392,140.378 195.293 C 140.219 195.195,140.470 195.796,140.936 196.630 M275.141 202.855 C 275.141 203.501,275.210 203.766,275.294 203.442 C 275.379 203.119,275.379 202.590,275.294 202.267 C 275.210 201.944,275.141 202.208,275.141 202.855 M145.760 203.632 C 145.760 203.689,146.251 204.181,146.851 204.723 L 147.943 205.709 146.956 204.618 C 146.037 203.601,145.760 203.372,145.760 203.632 M226.933 207.735 C 226.415 208.191,226.124 208.564,226.287 208.564 C 226.450 208.564,226.938 208.186,227.372 207.725 C 228.376 206.656,228.154 206.662,226.933 207.735 M83.659 219.815 C 83.659 220.000,84.098 220.982,84.635 221.998 C 85.171 223.014,85.611 223.694,85.611 223.510 C 85.611 223.325,85.171 222.343,84.635 221.327 C 84.098 220.311,83.659 219.631,83.659 219.815 M121.914 227.204 C 122.541 227.851,123.129 228.380,123.222 228.380 C 123.314 228.380,122.877 227.851,122.250 227.204 C 121.624 226.558,121.035 226.029,120.943 226.029 C 120.851 226.029,121.288 226.558,121.914 227.204 M124.434 229.668 C 124.988 230.284,125.743 230.945,126.113 231.136 C 126.482 231.328,126.633 231.352,126.448 231.190 C 126.264 231.029,125.508 230.368,124.770 229.722 L 123.427 228.547 124.434 229.668 M279.190 232.494 C 277.733 234.397,276.966 235.533,277.253 235.359 C 277.650 235.119,279.880 232.074,279.659 232.074 C 279.578 232.074,279.367 232.263,279.190 232.494 M93.031 236.104 C 93.426 236.658,93.824 237.112,93.916 237.112 C 94.009 237.112,93.762 236.658,93.367 236.104 C 92.972 235.550,92.574 235.097,92.482 235.097 C 92.389 235.097,92.636 235.550,93.031 236.104 M275.881 236.860 L 274.895 237.951 275.987 236.965 C 276.587 236.422,277.078 235.931,277.078 235.873 C 277.078 235.614,276.801 235.842,275.881 236.860 M97.250 241.799 C 98.061 242.980,99.412 244.532,99.402 244.274 C 99.397 244.122,98.830 243.385,98.143 242.638 C 97.456 241.891,97.054 241.514,97.250 241.799 M103.778 249.370 C 104.405 250.017,104.993 250.546,105.086 250.546 C 105.178 250.546,104.741 250.017,104.114 249.370 C 103.488 248.724,102.899 248.195,102.807 248.195 C 102.715 248.195,103.152 248.724,103.778 249.370 M257.431 255.121 L 255.751 256.659 257.515 255.250 C 259.041 254.031,259.525 253.548,259.194 253.575 C 259.148 253.579,258.354 254.275,257.431 255.121 M111.010 255.967 C 111.206 256.450,112.827 257.747,112.985 257.548 C 113.036 257.483,112.571 256.999,111.951 256.471 C 111.332 255.944,110.908 255.717,111.010 255.967 M113.893 258.543 C 115.674 259.897,116.984 260.732,116.761 260.369 C 116.508 259.960,113.619 257.935,113.288 257.935 C 113.180 257.935,113.452 258.208,113.893 258.543 M121.746 263.818 C 122.116 264.119,122.720 264.513,123.090 264.695 L 123.762 265.024 123.090 264.478 C 122.720 264.177,122.116 263.782,121.746 263.601 L 121.075 263.271 121.746 263.818 M142.688 346.013 C 142.857 346.182,143.353 346.264,143.790 346.196 C 144.462 346.090,144.415 346.042,143.482 345.888 C 142.815 345.777,142.502 345.827,142.688 346.013 M25.321 350.378 C 24.292 351.494,23.087 353.083,23.730 352.477 C 24.448 351.801,26.606 349.286,26.469 349.286 C 26.392 349.286,25.875 349.777,25.321 350.378 M107.678 352.584 C 107.585 352.735,107.954 352.794,108.498 352.714 C 109.042 352.634,109.488 352.510,109.488 352.439 C 109.488 352.183,107.845 352.315,107.678 352.584 M32.389 355.080 L 31.402 356.171 32.494 355.185 C 33.094 354.642,33.585 354.151,33.585 354.093 C 33.585 353.834,33.308 354.062,32.389 355.080 M269.836 363.140 L 268.850 364.232 269.941 363.245 C 270.959 362.326,271.187 362.049,270.928 362.049 C 270.870 362.049,270.379 362.540,269.836 363.140 M310.693 368.178 C 310.771 368.224,311.363 368.715,312.008 369.270 L 313.182 370.277 312.196 369.186 C 311.653 368.585,311.061 368.094,310.880 368.094 C 310.699 368.094,310.615 368.132,310.693 368.178 M296.967 369.281 C 297.470 369.809,297.941 370.174,298.014 370.091 C 298.088 370.009,297.677 369.576,297.101 369.130 L 296.054 368.320 296.967 369.281 M32.578 370.613 C 33.204 371.259,33.793 371.788,33.885 371.788 C 33.977 371.788,33.540 371.259,32.914 370.613 C 32.287 369.966,31.699 369.437,31.606 369.437 C 31.514 369.437,31.951 369.966,32.578 370.613 M146.454 371.207 C 145.497 372.386,145.460 372.485,146.233 371.788 C 147.036 371.065,147.990 369.761,147.703 369.779 C 147.650 369.783,147.088 370.425,146.454 371.207 M25.189 374.979 C 25.816 375.626,26.404 376.154,26.496 376.154 C 26.589 376.154,26.151 375.626,25.525 374.979 C 24.898 374.332,24.310 373.804,24.218 373.804 C 24.125 373.804,24.562 374.332,25.189 374.979 M127.624 374.580 C 127.624 374.638,128.115 375.129,128.715 375.672 L 129.807 376.658 128.820 375.567 C 127.901 374.549,127.624 374.321,127.624 374.580 M363.724 378.501 C 364.307 379.237,364.960 379.948,365.174 380.080 C 365.389 380.213,364.982 379.611,364.270 378.742 C 363.558 377.873,362.905 377.162,362.820 377.162 C 362.734 377.162,363.141 377.764,363.724 378.501 M265.292 378.782 C 265.496 379.164,265.828 379.578,266.030 379.703 C 266.294 379.866,266.293 379.733,266.027 379.236 C 265.823 378.855,265.490 378.441,265.288 378.316 C 265.025 378.153,265.026 378.285,265.292 378.782 " stroke="none" fill="#cacdfb" fill-rule="evenodd"></path><path id="path4" d="M0.588 4.603 C 1.003 4.683,1.683 4.683,2.099 4.603 C 2.515 4.523,2.175 4.458,1.343 4.458 C 0.512 4.458,0.172 4.523,0.588 4.603 M399.495 201.175 C 399.495 309.144,399.533 353.312,399.580 299.328 C 399.627 245.344,399.627 157.007,399.580 103.023 C 399.533 49.039,399.495 93.207,399.495 201.175 M398.152 201.175 C 398.152 308.220,398.190 352.011,398.237 298.489 C 398.284 244.966,398.284 157.385,398.237 103.862 C 398.190 50.340,398.152 94.131,398.152 201.175 M299.328 21.726 C 299.652 21.811,300.181 21.811,300.504 21.726 C 300.827 21.642,300.563 21.572,299.916 21.572 C 299.270 21.572,299.005 21.642,299.328 21.726 M319.138 22.502 C 319.138 23.149,319.207 23.413,319.291 23.090 C 319.376 22.767,319.376 22.238,319.291 21.914 C 319.207 21.591,319.138 21.856,319.138 22.502 M290.768 22.404 C 291.186 22.484,291.790 22.481,292.111 22.397 C 292.432 22.313,292.091 22.247,291.352 22.251 C 290.613 22.255,290.350 22.323,290.768 22.404 M247.779 25.762 C 248.197 25.843,248.801 25.840,249.122 25.756 C 249.443 25.671,249.102 25.606,248.363 25.609 C 247.624 25.613,247.361 25.682,247.779 25.762 M319.473 26.868 C 319.473 27.515,319.543 27.779,319.627 27.456 C 319.711 27.133,319.711 26.604,319.627 26.280 C 319.543 25.957,319.473 26.222,319.473 26.868 M204.618 29.115 C 204.941 29.199,205.470 29.199,205.793 29.115 C 206.117 29.030,205.852 28.961,205.206 28.961 C 204.559 28.961,204.295 29.030,204.618 29.115 M196.222 29.787 C 196.545 29.871,197.074 29.871,197.397 29.787 C 197.720 29.702,197.456 29.633,196.809 29.633 C 196.163 29.633,195.898 29.702,196.222 29.787 M161.629 32.473 C 161.952 32.558,162.481 32.558,162.804 32.473 C 163.128 32.389,162.863 32.320,162.217 32.320 C 161.570 32.320,161.306 32.389,161.629 32.473 M118.812 35.838 C 119.229 35.918,119.834 35.915,120.155 35.831 C 120.476 35.747,120.134 35.681,119.395 35.685 C 118.657 35.689,118.394 35.758,118.812 35.838 M93.115 37.847 C 93.438 37.931,93.967 37.931,94.291 37.847 C 94.614 37.762,94.349 37.693,93.703 37.693 C 93.056 37.693,92.792 37.762,93.115 37.847 M75.819 39.196 C 76.234 39.276,76.914 39.276,77.330 39.196 C 77.746 39.116,77.406 39.050,76.574 39.050 C 75.743 39.050,75.403 39.116,75.819 39.196 M54.328 40.876 C 54.746 40.956,55.350 40.953,55.671 40.869 C 55.993 40.785,55.651 40.719,54.912 40.723 C 54.173 40.727,53.910 40.795,54.328 40.876 M320.830 44.332 C 320.830 45.164,320.896 45.504,320.976 45.088 C 321.056 44.673,321.056 43.992,320.976 43.577 C 320.896 43.161,320.830 43.501,320.830 44.332 M222.922 44.575 C 223.522 44.650,224.505 44.650,225.105 44.575 C 225.705 44.501,225.214 44.440,224.013 44.440 C 222.813 44.440,222.322 44.501,222.922 44.575 M247.612 44.909 C 248.122 44.987,248.878 44.984,249.291 44.905 C 249.704 44.825,249.286 44.762,248.363 44.764 C 247.439 44.767,247.101 44.832,247.612 44.909 M321.495 53.233 C 321.499 53.971,321.568 54.234,321.648 53.816 C 321.728 53.399,321.725 52.794,321.641 52.473 C 321.557 52.152,321.492 52.494,321.495 53.233 M53.814 58.102 C 53.814 58.749,53.883 59.013,53.968 58.690 C 54.052 58.367,54.052 57.838,53.968 57.515 C 53.883 57.191,53.814 57.456,53.814 58.102 M284.113 58.354 L 282.955 59.614 284.215 58.456 C 285.387 57.379,285.629 57.095,285.372 57.095 C 285.316 57.095,284.749 57.662,284.113 58.354 M223.594 65.392 C 224.009 65.472,224.689 65.472,225.105 65.392 C 225.521 65.312,225.181 65.247,224.349 65.247 C 223.518 65.247,223.178 65.312,223.594 65.392 M233.165 65.387 C 233.489 65.471,234.018 65.471,234.341 65.387 C 234.664 65.302,234.400 65.233,233.753 65.233 C 233.107 65.233,232.842 65.302,233.165 65.387 M156.417 66.343 C 155.728 66.811,155.164 67.267,155.164 67.355 C 155.164 67.444,155.768 67.116,156.507 66.627 C 157.680 65.850,158.077 65.491,157.761 65.491 C 157.711 65.491,157.107 65.874,156.417 66.343 M237.140 65.612 C 237.217 65.678,237.733 65.834,238.287 65.958 C 239.023 66.123,239.159 66.091,238.791 65.842 C 238.337 65.535,236.803 65.321,237.140 65.612 M217.716 66.059 C 218.039 66.143,218.568 66.143,218.892 66.059 C 219.215 65.974,218.950 65.905,218.304 65.905 C 217.657 65.905,217.393 65.974,217.716 66.059 M322.643 69.353 C 322.898 71.014,323.092 71.296,323.085 69.997 C 323.082 69.458,322.935 68.791,322.758 68.514 C 322.540 68.171,322.503 68.439,322.643 69.353 M254.072 69.521 C 254.997 69.919,255.325 69.919,255.080 69.521 C 254.966 69.337,254.541 69.196,254.136 69.209 C 253.427 69.232,253.425 69.243,254.072 69.521 M264.236 69.759 C 264.653 69.839,265.258 69.836,265.579 69.752 C 265.900 69.668,265.558 69.602,264.819 69.606 C 264.081 69.610,263.818 69.679,264.236 69.759 M324.182 87.154 C 324.186 87.893,324.255 88.155,324.335 87.737 C 324.415 87.320,324.412 86.715,324.328 86.394 C 324.244 86.073,324.178 86.415,324.182 87.154 M129.450 87.406 L 128.463 88.497 129.555 87.511 C 130.572 86.591,130.801 86.314,130.541 86.314 C 130.484 86.314,129.992 86.805,129.450 87.406 M125.430 91.105 C 123.947 92.441,122.369 93.988,121.924 94.542 C 121.479 95.097,122.390 94.350,123.949 92.883 C 125.508 91.416,127.159 89.867,127.616 89.440 C 128.074 89.014,128.376 88.667,128.288 88.670 C 128.200 88.673,126.914 89.769,125.430 91.105 M324.103 89.924 C 324.100 90.340,324.249 90.680,324.433 90.680 C 324.854 90.680,324.854 90.324,324.433 89.673 C 324.170 89.265,324.107 89.313,324.103 89.924 M324.854 95.214 C 324.858 95.953,324.926 96.216,325.007 95.798 C 325.087 95.380,325.084 94.776,325.000 94.455 C 324.916 94.133,324.850 94.475,324.854 95.214 M56.837 97.061 C 56.837 97.708,56.906 97.972,56.991 97.649 C 57.075 97.326,57.075 96.797,56.991 96.474 C 56.906 96.150,56.837 96.415,56.837 97.061 M118.372 98.489 L 117.045 99.916 118.472 98.588 C 119.799 97.354,120.054 97.061,119.799 97.061 C 119.745 97.061,119.102 97.704,118.372 98.489 M113.334 103.862 L 112.007 105.290 113.434 103.962 C 114.762 102.727,115.016 102.435,114.762 102.435 C 114.707 102.435,114.065 103.077,113.334 103.862 M202.272 103.348 C 202.782 103.425,203.538 103.423,203.951 103.343 C 204.364 103.263,203.946 103.200,203.023 103.203 C 202.099 103.205,201.761 103.270,202.272 103.348 M211.675 103.348 C 212.186 103.425,212.942 103.423,213.355 103.343 C 213.768 103.263,213.350 103.200,212.427 103.203 C 211.503 103.205,211.165 103.270,211.675 103.348 M191.772 104.307 L 189.924 104.761 191.604 104.573 C 192.527 104.470,193.510 104.254,193.787 104.092 C 194.443 103.710,194.022 103.755,191.772 104.307 M186.398 105.462 C 186.044 105.695,186.243 105.729,187.070 105.577 C 188.518 105.311,188.791 105.120,187.713 105.127 C 187.267 105.130,186.675 105.281,186.398 105.462 M118.711 109.236 L 117.045 110.999 118.808 109.333 C 119.777 108.416,120.571 107.622,120.571 107.569 C 120.571 107.319,120.260 107.598,118.711 109.236 M177.330 108.648 C 176.868 108.912,176.641 109.128,176.826 109.128 C 177.011 109.128,177.540 108.912,178.002 108.648 C 178.463 108.384,178.690 108.168,178.505 108.168 C 178.321 108.168,177.792 108.384,177.330 108.648 M174.055 109.992 C 173.086 110.433,172.292 110.869,172.292 110.962 C 172.292 111.123,176.006 109.571,176.294 109.289 C 176.638 108.953,175.678 109.255,174.055 109.992 M167.086 113.728 C 166.483 114.242,166.359 114.446,166.778 114.238 C 167.394 113.932,168.549 112.827,168.219 112.858 C 168.150 112.865,167.641 113.256,167.086 113.728 M162.409 116.886 C 161.683 117.435,161.230 117.880,161.401 117.875 C 161.719 117.866,164.203 115.887,163.896 115.887 C 163.804 115.888,163.134 116.337,162.409 116.886 M58.516 118.220 C 58.516 118.866,58.585 119.131,58.670 118.808 C 58.754 118.484,58.754 117.955,58.670 117.632 C 58.585 117.309,58.516 117.573,58.516 118.220 M100.355 119.815 C 99.763 120.504,99.320 121.243,99.497 121.243 C 99.566 121.243,99.957 120.789,100.367 120.235 C 101.176 119.140,101.169 118.868,100.355 119.815 M156.162 122.166 L 153.988 124.433 156.255 122.260 C 157.502 121.065,158.522 120.044,158.522 119.993 C 158.522 119.746,158.180 120.061,156.162 122.166 M326.869 121.411 C 326.873 122.149,326.941 122.412,327.022 121.994 C 327.102 121.577,327.099 120.972,327.015 120.651 C 326.931 120.330,326.865 120.672,326.869 121.411 M153.084 124.853 C 152.492 125.542,152.048 126.280,152.226 126.280 C 152.295 126.280,152.686 125.827,153.096 125.273 C 153.905 124.178,153.897 123.906,153.084 124.853 M327.198 125.609 C 327.198 126.255,327.267 126.520,327.352 126.196 C 327.436 125.873,327.436 125.344,327.352 125.021 C 327.267 124.698,327.198 124.962,327.198 125.609 M274.055 132.158 C 275.059 133.174,275.955 134.005,276.048 134.005 C 276.140 134.005,275.395 133.174,274.391 132.158 C 273.388 131.142,272.491 130.311,272.399 130.311 C 272.307 130.311,273.052 131.142,274.055 132.158 M87.699 138.918 C 87.139 140.146,87.383 140.214,88.068 139.021 C 88.379 138.479,88.514 138.035,88.367 138.035 C 88.221 138.035,87.920 138.433,87.699 138.918 M86.704 141.240 C 86.142 142.475,86.249 142.739,86.858 141.616 C 87.142 141.092,87.311 140.600,87.234 140.523 C 87.158 140.446,86.919 140.769,86.704 141.240 M156.272 146.767 C 156.272 147.783,156.335 148.199,156.412 147.691 C 156.489 147.183,156.489 146.352,156.412 145.844 C 156.335 145.336,156.272 145.751,156.272 146.767 M328.759 146.169 C 328.914 147.102,328.961 147.149,329.067 146.477 C 329.136 146.040,329.054 145.544,328.884 145.375 C 328.698 145.188,328.649 145.502,328.759 146.169 M137.867 147.775 C 137.581 148.329,137.422 148.783,137.514 148.783 C 137.607 148.783,137.917 148.329,138.203 147.775 C 138.490 147.221,138.649 146.767,138.556 146.767 C 138.464 146.767,138.154 147.221,137.867 147.775 M136.731 150.159 C 136.525 150.750,136.367 151.400,136.380 151.603 C 136.393 151.807,136.620 151.382,136.885 150.659 C 137.150 149.936,137.308 149.286,137.236 149.215 C 137.164 149.143,136.937 149.568,136.731 150.159 M61.203 151.469 C 61.203 152.116,61.272 152.380,61.357 152.057 C 61.441 151.734,61.441 151.205,61.357 150.882 C 61.272 150.558,61.203 150.823,61.203 151.469 M82.658 151.838 C 82.452 152.429,82.294 153.079,82.307 153.283 C 82.320 153.486,82.548 153.061,82.813 152.338 C 83.077 151.616,83.235 150.966,83.164 150.894 C 83.092 150.822,82.865 151.247,82.658 151.838 M250.882 151.973 C 251.508 152.620,252.097 153.149,252.189 153.149 C 252.281 153.149,251.844 152.620,251.217 151.973 C 250.591 151.327,250.003 150.798,249.910 150.798 C 249.818 150.798,250.255 151.327,250.882 151.973 M329.213 151.805 C 329.213 152.452,329.282 152.716,329.367 152.393 C 329.451 152.070,329.451 151.541,329.367 151.217 C 329.282 150.894,329.213 151.159,329.213 151.805 M329.363 154.660 C 329.470 155.584,329.613 156.402,329.682 156.479 C 329.918 156.744,329.740 154.659,329.455 153.820 C 329.262 153.254,329.232 153.527,329.363 154.660 M134.192 157.701 C 134.065 158.375,134.029 158.994,134.111 159.076 C 134.193 159.158,134.364 158.674,134.490 158.000 C 134.617 157.326,134.653 156.707,134.571 156.625 C 134.489 156.543,134.318 157.027,134.192 157.701 M61.875 160.873 C 61.875 161.520,61.944 161.784,62.028 161.461 C 62.113 161.138,62.113 160.609,62.028 160.285 C 61.944 159.962,61.875 160.227,61.875 160.873 M133.224 162.957 C 132.985 164.354,132.642 169.612,132.835 168.934 C 133.059 168.144,133.664 162.099,133.532 161.967 C 133.467 161.903,133.329 162.348,133.224 162.957 M62.217 165.407 C 62.221 166.146,62.290 166.409,62.370 165.991 C 62.451 165.573,62.447 164.969,62.363 164.648 C 62.279 164.327,62.214 164.668,62.217 165.407 M79.429 166.583 C 79.302 167.163,79.273 167.714,79.365 167.806 C 79.457 167.899,79.637 167.499,79.765 166.919 C 79.892 166.338,79.921 165.787,79.829 165.695 C 79.736 165.603,79.557 166.002,79.429 166.583 M62.546 168.934 C 62.546 169.580,62.616 169.845,62.700 169.521 C 62.785 169.198,62.785 168.669,62.700 168.346 C 62.616 168.023,62.546 168.287,62.546 168.934 M79.010 170.445 C 79.014 171.184,79.082 171.447,79.163 171.029 C 79.243 170.611,79.240 170.007,79.156 169.685 C 79.072 169.364,79.006 169.706,79.010 170.445 M330.695 171.285 C 330.961 172.733,331.152 173.006,331.145 171.928 C 331.142 171.482,330.991 170.890,330.810 170.613 C 330.577 170.258,330.543 170.458,330.695 171.285 M162.240 171.453 C 162.240 171.637,162.456 172.166,162.720 172.628 C 162.984 173.090,163.200 173.317,163.200 173.132 C 163.200 172.947,162.984 172.418,162.720 171.956 C 162.456 171.495,162.240 171.268,162.240 171.453 M133.026 176.322 C 133.016 176.784,133.154 177.389,133.333 177.666 C 133.761 178.327,133.761 177.149,133.333 176.154 C 133.069 175.539,133.043 175.553,133.026 176.322 M245.276 180.185 C 245.278 181.293,245.341 181.706,245.416 181.102 C 245.490 180.499,245.489 179.592,245.412 179.087 C 245.335 178.583,245.274 179.076,245.276 180.185 M331.184 179.541 C 331.202 180.080,331.346 180.898,331.503 181.360 C 331.695 181.926,331.725 181.653,331.594 180.521 C 331.376 178.631,331.133 178.051,331.184 179.541 M297.650 184.215 C 297.653 184.954,297.722 185.217,297.803 184.799 C 297.883 184.381,297.880 183.776,297.796 183.455 C 297.712 183.134,297.646 183.476,297.650 184.215 M63.903 186.734 C 63.903 187.565,63.969 187.905,64.049 187.490 C 64.129 187.074,64.129 186.394,64.049 185.978 C 63.969 185.563,63.903 185.903,63.903 186.734 M77.473 187.537 C 77.339 188.625,77.297 189.584,77.380 189.667 C 77.603 189.890,78.004 186.917,77.850 186.186 C 77.777 185.841,77.607 186.449,77.473 187.537 M135.712 187.238 C 135.712 187.422,136.002 188.102,136.356 188.749 C 136.710 189.395,137.000 189.773,137.000 189.589 C 137.000 189.404,136.710 188.724,136.356 188.077 C 136.002 187.431,135.712 187.053,135.712 187.238 M332.064 188.749 C 332.167 189.765,332.306 190.659,332.373 190.736 C 332.623 191.025,332.435 188.217,332.161 187.573 C 331.984 187.155,331.947 187.599,332.064 188.749 M137.028 190.214 C 137.028 190.619,139.014 194.401,139.329 194.596 C 139.495 194.698,139.097 193.765,138.445 192.521 C 137.168 190.085,137.028 189.856,137.028 190.214 M77.265 192.975 C 77.276 193.329,77.418 194.223,77.580 194.962 C 77.865 196.257,77.872 196.241,77.765 194.523 C 77.663 192.880,77.221 191.512,77.265 192.975 M332.730 197.649 C 332.837 198.573,332.978 199.391,333.045 199.468 C 333.296 199.760,333.105 197.283,332.827 196.641 C 332.640 196.209,332.605 196.569,332.730 197.649 M65.240 203.359 C 65.244 204.097,65.313 204.360,65.393 203.942 C 65.473 203.525,65.470 202.920,65.386 202.599 C 65.302 202.278,65.236 202.620,65.240 203.359 M231.402 203.694 C 230.586 204.526,229.994 205.206,230.087 205.206 C 230.179 205.206,230.922 204.526,231.738 203.694 C 232.554 202.863,233.146 202.183,233.053 202.183 C 232.961 202.183,232.218 202.863,231.402 203.694 M333.402 205.709 C 333.509 206.633,333.650 207.452,333.716 207.529 C 333.968 207.820,333.777 205.344,333.499 204.702 C 333.312 204.270,333.277 204.629,333.402 205.709 M148.111 206.654 C 148.111 206.712,148.602 207.203,149.202 207.746 L 150.294 208.732 149.307 207.641 C 148.388 206.623,148.111 206.395,148.111 206.654 M333.750 210.450 C 333.847 211.352,333.982 212.154,334.050 212.231 C 334.317 212.535,334.144 209.710,333.868 209.275 C 333.688 208.990,333.642 209.447,333.750 210.450 M334.197 217.996 C 334.210 218.627,334.358 219.446,334.526 219.815 C 334.732 220.267,334.765 219.938,334.627 218.808 C 334.384 216.808,334.164 216.393,334.197 217.996 M162.888 217.783 C 162.888 217.875,163.342 218.185,163.896 218.472 C 164.450 218.758,164.903 218.917,164.903 218.825 C 164.903 218.733,164.450 218.423,163.896 218.136 C 163.342 217.849,162.888 217.691,162.888 217.783 M84.971 223.342 C 85.348 224.081,85.732 224.685,85.824 224.685 C 85.916 224.685,85.683 224.081,85.306 223.342 C 84.930 222.603,84.546 221.998,84.453 221.998 C 84.361 221.998,84.594 222.603,84.971 223.342 M334.923 223.342 C 334.923 223.988,334.992 224.253,335.076 223.929 C 335.161 223.606,335.161 223.077,335.076 222.754 C 334.992 222.431,334.923 222.695,334.923 223.342 M122.586 227.540 C 124.334 229.295,125.839 230.730,125.931 230.730 C 126.024 230.730,124.669 229.295,122.922 227.540 C 121.174 225.785,119.669 224.349,119.577 224.349 C 119.484 224.349,120.839 225.785,122.586 227.540 M187.657 224.592 C 188.258 224.667,189.240 224.667,189.840 224.592 C 190.441 224.518,189.950 224.457,188.749 224.457 C 187.548 224.457,187.057 224.518,187.657 224.592 M335.258 227.372 C 335.258 228.018,335.328 228.283,335.412 227.960 C 335.497 227.636,335.497 227.107,335.412 226.784 C 335.328 226.461,335.258 226.725,335.258 227.372 M67.248 229.387 C 67.248 230.034,67.317 230.298,67.402 229.975 C 67.486 229.652,67.486 229.123,67.402 228.799 C 67.317 228.476,67.248 228.741,67.248 229.387 M335.411 231.577 C 335.520 232.681,335.664 233.648,335.731 233.725 C 336.011 234.048,335.815 230.520,335.528 230.065 C 335.323 229.742,335.282 230.272,335.411 231.577 M91.993 235.376 C 92.174 235.715,92.587 236.206,92.909 236.468 C 93.272 236.762,93.191 236.528,92.696 235.852 C 91.814 234.647,91.483 234.423,91.993 235.376 M336.266 240.134 C 336.266 240.781,336.335 241.045,336.420 240.722 C 336.504 240.399,336.504 239.870,336.420 239.547 C 336.335 239.223,336.266 239.488,336.266 240.134 M272.358 241.394 L 271.201 242.653 272.460 241.496 C 273.153 240.859,273.720 240.293,273.720 240.236 C 273.720 239.980,273.435 240.222,272.358 241.394 M336.421 245.172 C 336.529 246.558,336.672 247.754,336.738 247.831 C 336.999 248.132,336.795 243.957,336.519 243.325 C 336.337 242.910,336.300 243.616,336.421 245.172 M68.599 245.676 C 68.602 246.415,68.671 246.677,68.751 246.260 C 68.832 245.842,68.829 245.237,68.745 244.916 C 68.661 244.595,68.595 244.937,68.599 245.676 M103.428 249.286 C 104.820 250.769,105.122 251.036,105.122 250.784 C 105.122 250.730,104.404 250.012,103.526 249.188 L 101.931 247.691 103.428 249.286 M337.060 252.393 C 337.339 254.059,337.533 254.327,337.526 253.037 C 337.524 252.498,337.367 251.830,337.178 251.553 C 336.932 251.192,336.899 251.430,337.060 252.393 M110.663 256.255 C 111.385 256.994,112.051 257.599,112.143 257.599 C 112.235 257.599,111.721 256.994,110.999 256.255 C 110.278 255.516,109.612 254.912,109.519 254.912 C 109.427 254.912,109.942 255.516,110.663 256.255 M337.274 256.087 C 337.275 256.641,337.390 257.548,337.531 258.102 C 337.887 259.499,337.903 258.124,337.551 256.423 C 337.317 255.294,337.273 255.240,337.274 256.087 M199.069 256.498 C 199.665 256.572,200.723 256.573,201.420 256.500 C 202.117 256.428,201.629 256.367,200.336 256.365 C 199.043 256.364,198.473 256.423,199.069 256.498 M69.935 262.972 C 69.935 263.619,70.004 263.883,70.089 263.560 C 70.173 263.237,70.173 262.708,70.089 262.385 C 70.004 262.061,69.935 262.326,69.935 262.972 M70.285 267.338 C 70.285 268.170,70.350 268.510,70.430 268.094 C 70.510 267.678,70.510 266.998,70.430 266.583 C 70.350 266.167,70.285 266.507,70.285 267.338 M126.280 266.821 C 126.280 266.913,126.885 267.297,127.624 267.674 C 128.363 268.051,128.967 268.284,128.967 268.192 C 128.967 268.099,128.363 267.715,127.624 267.338 C 126.885 266.961,126.280 266.729,126.280 266.821 M130.982 269.186 C 131.444 269.450,131.973 269.666,132.158 269.666 C 132.343 269.666,132.116 269.450,131.654 269.186 C 131.192 268.922,130.663 268.706,130.479 268.706 C 130.294 268.706,130.521 268.922,130.982 269.186 M144.920 274.010 C 145.290 274.172,146.121 274.400,146.767 274.517 C 147.574 274.664,147.732 274.638,147.271 274.436 C 146.902 274.275,146.071 274.047,145.424 273.929 C 144.617 273.783,144.459 273.808,144.920 274.010 M200.000 278.086 L 199.328 278.374 200.000 278.393 C 200.369 278.403,200.898 278.265,201.175 278.086 C 201.843 277.654,201.004 277.654,200.000 278.086 M174.055 278.317 C 174.379 278.402,174.908 278.402,175.231 278.317 C 175.554 278.233,175.290 278.164,174.643 278.164 C 173.997 278.164,173.732 278.233,174.055 278.317 M196.058 278.323 C 196.475 278.404,197.080 278.400,197.401 278.316 C 197.722 278.232,197.380 278.167,196.641 278.170 C 195.903 278.174,195.640 278.243,196.058 278.323 M179.765 278.662 C 180.273 278.739,181.104 278.739,181.612 278.662 C 182.120 278.585,181.704 278.522,180.688 278.522 C 179.673 278.522,179.257 278.585,179.765 278.662 M285.894 290.744 C 286.217 290.828,286.746 290.828,287.070 290.744 C 287.393 290.659,287.128 290.590,286.482 290.590 C 285.835 290.590,285.571 290.659,285.894 290.744 M277.162 291.415 C 277.485 291.500,278.014 291.500,278.338 291.415 C 278.661 291.331,278.396 291.262,277.750 291.262 C 277.103 291.262,276.839 291.331,277.162 291.415 M234.681 294.780 C 235.098 294.860,235.703 294.857,236.024 294.773 C 236.345 294.689,236.003 294.623,235.264 294.627 C 234.526 294.631,234.263 294.700,234.681 294.780 M132.242 302.840 C 132.657 302.920,133.338 302.920,133.753 302.840 C 134.169 302.760,133.829 302.694,132.997 302.694 C 132.166 302.694,131.826 302.760,132.242 302.840 M73.294 305.290 C 73.294 305.936,73.363 306.201,73.447 305.877 C 73.532 305.554,73.532 305.025,73.447 304.702 C 73.363 304.379,73.294 304.643,73.294 305.290 M81.532 306.871 C 81.950 306.951,82.554 306.948,82.875 306.864 C 83.197 306.780,82.855 306.714,82.116 306.718 C 81.377 306.722,81.114 306.790,81.532 306.871 M106.213 346.159 C 106.537 346.244,107.065 346.244,107.389 346.159 C 107.712 346.075,107.448 346.006,106.801 346.006 C 106.154 346.006,105.890 346.075,106.213 346.159 M140.306 346.165 C 140.724 346.246,141.328 346.243,141.650 346.159 C 141.971 346.074,141.629 346.009,140.890 346.012 C 140.151 346.016,139.888 346.085,140.306 346.165 M218.896 347.173 C 219.313 347.253,219.918 347.250,220.239 347.166 C 220.560 347.082,220.218 347.016,219.479 347.020 C 218.741 347.024,218.478 347.093,218.896 347.173 M199.975 354.996 C 199.975 358.967,200.023 360.592,200.083 358.606 C 200.142 356.620,200.142 353.371,200.083 351.385 C 200.023 349.400,199.975 351.024,199.975 354.996 M60.608 363.560 C 60.608 371.872,60.652 375.225,60.705 371.010 C 60.758 366.795,60.758 359.994,60.705 355.896 C 60.651 351.799,60.608 355.248,60.608 363.560 M129.114 350.378 L 128.128 351.469 129.219 350.483 C 130.237 349.563,130.465 349.286,130.206 349.286 C 130.148 349.286,129.657 349.777,129.114 350.378 M245.327 364.232 C 245.327 372.544,245.370 375.896,245.424 371.682 C 245.477 367.467,245.477 360.666,245.424 356.568 C 245.370 352.471,245.327 355.919,245.327 364.232 M25.336 350.714 L 24.349 351.805 25.441 350.819 C 26.041 350.276,26.532 349.785,26.532 349.727 C 26.532 349.468,26.255 349.696,25.336 350.714 M68.989 353.102 C 68.892 353.354,68.869 354.450,68.936 355.537 L 69.059 357.515 69.122 355.256 L 69.186 352.997 74.979 352.896 L 80.772 352.796 74.968 352.720 C 70.328 352.660,69.129 352.737,68.989 353.102 M81.528 352.882 C 81.944 352.962,82.624 352.962,83.039 352.882 C 83.455 352.802,83.115 352.736,82.284 352.736 C 81.453 352.736,81.113 352.802,81.528 352.882 M253.607 353.736 C 253.635 354.280,253.689 354.332,253.797 353.920 C 253.914 353.476,254.415 353.321,256.025 353.229 L 258.102 353.110 255.835 353.045 C 253.679 352.984,253.570 353.018,253.607 353.736 M32.224 354.912 L 31.066 356.171 32.326 355.014 C 33.018 354.377,33.585 353.811,33.585 353.754 C 33.585 353.498,33.301 353.740,32.224 354.912 M253.625 358.270 C 253.594 360.348,253.682 362.049,253.820 362.049 C 253.959 362.050,254.031 360.879,253.981 359.447 C 253.820 354.846,253.683 354.393,253.625 358.270 M68.936 358.018 C 69.052 358.445,70.126 358.524,75.930 358.533 L 82.788 358.545 76.086 358.442 C 71.271 358.369,69.302 358.224,69.091 357.927 C 68.879 357.628,68.836 357.653,68.936 358.018 M83.077 361.713 C 83.077 363.468,83.133 364.186,83.202 363.308 C 83.272 362.431,83.272 360.995,83.202 360.118 C 83.133 359.240,83.077 359.958,83.077 361.713 M191.567 364.064 C 191.567 366.558,191.620 367.578,191.685 366.331 C 191.749 365.084,191.749 363.044,191.685 361.797 C 191.620 360.550,191.567 361.570,191.567 364.064 M133.089 361.377 C 133.089 362.208,133.154 362.548,133.235 362.133 C 133.315 361.717,133.315 361.037,133.235 360.621 C 133.154 360.206,133.089 360.546,133.089 361.377 M29.651 361.881 C 29.654 362.804,29.719 363.142,29.796 362.632 C 29.873 362.121,29.871 361.366,29.791 360.953 C 29.712 360.539,29.649 360.957,29.651 361.881 M20.927 363.224 C 20.929 364.332,20.991 364.745,21.066 364.142 C 21.141 363.538,21.139 362.631,21.063 362.127 C 20.986 361.622,20.925 362.116,20.927 363.224 M124.369 363.224 C 124.371 364.332,124.434 364.745,124.509 364.142 C 124.583 363.538,124.582 362.631,124.505 362.127 C 124.429 361.622,124.368 362.116,124.369 363.224 M149.210 363.056 C 149.210 363.887,149.275 364.228,149.355 363.812 C 149.435 363.396,149.435 362.716,149.355 362.301 C 149.275 361.885,149.210 362.225,149.210 363.056 M256.164 361.955 C 256.760 362.029,257.818 362.031,258.515 361.958 C 259.212 361.885,258.724 361.825,257.431 361.823 C 256.138 361.822,255.568 361.881,256.164 361.955 M304.538 362.286 C 304.956 362.367,305.560 362.364,305.881 362.279 C 306.202 362.195,305.861 362.130,305.122 362.133 C 304.383 362.137,304.120 362.206,304.538 362.286 M330.395 362.963 C 330.995 363.038,331.977 363.038,332.578 362.963 C 333.178 362.889,332.687 362.828,331.486 362.828 C 330.285 362.828,329.794 362.889,330.395 362.963 M350.363 362.969 C 351.602 363.034,353.718 363.034,355.065 362.970 C 356.412 362.906,355.399 362.853,352.813 362.853 C 350.227 362.852,349.124 362.905,350.363 362.969 M373.712 362.963 C 374.308 363.037,375.366 363.038,376.063 362.966 C 376.760 362.893,376.272 362.832,374.979 362.831 C 373.686 362.829,373.116 362.889,373.712 362.963 M133.075 364.400 C 133.075 365.046,133.145 365.311,133.229 364.987 C 133.313 364.664,133.313 364.135,133.229 363.812 C 133.145 363.489,133.075 363.753,133.075 364.400 M372.600 369.605 C 372.600 373.115,372.650 374.505,372.711 372.695 C 372.771 370.884,372.771 368.012,372.710 366.313 C 372.649 364.614,372.600 366.096,372.600 369.605 M68.971 368.430 C 68.971 370.185,69.027 370.903,69.097 370.025 C 69.166 369.148,69.166 367.712,69.097 366.835 C 69.027 365.957,68.971 366.675,68.971 368.430 M40.050 367.337 L 42.989 367.448 42.989 370.430 C 42.989 372.131,42.841 373.485,42.645 373.582 C 42.455 373.676,42.493 373.714,42.729 373.667 C 43.032 373.606,43.185 372.634,43.253 370.334 L 43.349 367.086 40.230 367.156 L 37.112 367.225 40.050 367.337 M253.706 373.300 C 253.705 376.440,253.756 377.770,253.818 376.255 C 253.880 374.740,253.880 372.171,253.819 370.545 C 253.757 368.920,253.706 370.160,253.706 373.300 M310.999 368.535 C 310.999 368.593,311.490 369.084,312.091 369.627 L 313.182 370.613 312.196 369.521 C 311.276 368.504,310.999 368.276,310.999 368.535 M118.678 372.964 C 118.679 374.811,118.736 375.524,118.804 374.548 C 118.872 373.572,118.871 372.061,118.802 371.189 C 118.733 370.318,118.678 371.117,118.678 372.964 M181.269 372.031 C 181.865 372.105,182.923 372.106,183.620 372.034 C 184.317 371.961,183.829 371.900,182.536 371.899 C 181.243 371.897,180.673 371.957,181.269 372.031 M25.357 374.811 C 26.267 375.735,27.086 376.490,27.179 376.490 C 27.271 376.490,26.602 375.735,25.693 374.811 C 24.783 373.887,23.963 373.132,23.871 373.132 C 23.778 373.132,24.447 373.887,25.357 374.811 M84.080 375.819 C 84.080 377.389,84.138 378.031,84.209 377.246 C 84.280 376.461,84.280 375.176,84.209 374.391 C 84.138 373.606,84.080 374.249,84.080 375.819 M107.893 373.699 C 108.216 373.784,108.745 373.784,109.068 373.699 C 109.391 373.615,109.127 373.546,108.480 373.546 C 107.834 373.546,107.569 373.615,107.893 373.699 M316.961 374.382 C 317.561 374.457,318.543 374.457,319.144 374.382 C 319.744 374.308,319.253 374.247,318.052 374.247 C 316.851 374.247,316.360 374.308,316.961 374.382 M127.960 374.580 C 127.960 374.638,128.451 375.129,129.051 375.672 L 130.143 376.658 129.156 375.567 C 128.237 374.549,127.960 374.321,127.960 374.580 M366.667 375.720 C 367.082 375.800,367.762 375.800,368.178 375.720 C 368.594 375.640,368.254 375.574,367.422 375.574 C 366.591 375.574,366.251 375.640,366.667 375.720 M365.517 378.002 C 365.519 379.295,365.580 379.783,365.652 379.086 C 365.725 378.389,365.724 377.331,365.650 376.735 C 365.575 376.139,365.516 376.709,365.517 378.002 M303.027 376.395 C 303.538 376.473,304.293 376.471,304.707 376.391 C 305.120 376.311,304.702 376.248,303.778 376.251 C 302.855 376.253,302.517 376.318,303.027 376.395 M384.978 378.505 C 384.978 379.337,385.044 379.677,385.124 379.261 C 385.204 378.846,385.204 378.165,385.124 377.750 C 385.044 377.334,384.978 377.674,384.978 378.505 M208.809 379.755 C 209.405 379.830,210.463 379.831,211.160 379.758 C 211.856 379.685,211.369 379.625,210.076 379.623 C 208.783 379.622,208.212 379.681,208.809 379.755 M233.165 379.761 C 234.228 379.828,235.966 379.828,237.028 379.761 C 238.090 379.695,237.221 379.640,235.097 379.640 C 232.972 379.640,232.103 379.695,233.165 379.761 M248.791 379.759 C 249.581 379.830,250.790 379.829,251.478 379.757 C 252.166 379.685,251.520 379.627,250.042 379.628 C 248.564 379.629,248.001 379.688,248.791 379.759 M140.134 380.089 C 140.642 380.166,141.474 380.166,141.982 380.089 C 142.490 380.012,142.074 379.950,141.058 379.950 C 140.042 379.950,139.626 380.012,140.134 380.089 M323.510 380.089 C 324.018 380.166,324.849 380.166,325.357 380.089 C 325.865 380.012,325.449 379.950,324.433 379.950 C 323.417 379.950,323.002 380.012,323.510 380.089 M336.272 380.089 C 336.780 380.166,337.611 380.166,338.119 380.089 C 338.627 380.012,338.212 379.950,337.196 379.950 C 336.180 379.950,335.764 380.012,336.272 380.089 M342.317 380.089 C 342.825 380.166,343.657 380.166,344.165 380.089 C 344.673 380.012,344.257 379.950,343.241 379.950 C 342.225 379.950,341.809 380.012,342.317 380.089 " stroke="none" fill="#7c74ec" fill-rule="evenodd"></path></g></svg>